<svg width="18" height="13" viewBox="0 0 18 13" fill="none" xmlns="http://www.w3.org/2000/svg">
<path d="M12.625 1.375V2M12.625 4.5V5.125M12.625 7.625V8.25M12.625 10.75V11.375M5.125 7H9.5M5.125 8.875H7.625M1.6875 0.75C1.17 0.75 0.75 1.17 0.75 1.6875V4.20917C1.13062 4.42831 1.44677 4.7439 1.6666 5.12412C1.88643 5.50435 2.00217 5.9358 2.00217 6.375C2.00217 6.8142 1.88643 7.24565 1.6666 7.62588C1.44677 8.0061 1.13062 8.32169 0.75 8.54083V11.0625C0.75 11.58 1.17 12 1.6875 12H16.0625C16.58 12 17 11.58 17 11.0625V8.54083C16.6194 8.32169 16.3032 8.0061 16.0834 7.62588C15.8636 7.24565 15.7478 6.8142 15.7478 6.375C15.7478 5.9358 15.8636 5.50435 16.0834 5.12412C16.3032 4.7439 16.6194 4.42831 17 4.20917V1.6875C17 1.17 16.58 0.75 16.0625 0.75H1.6875Z" stroke="#757575" stroke-width="1.5" stroke-linecap="round" stroke-linejoin="round"/>
</svg>
