<svg width="408" height="481" viewBox="0 0 408 481" fill="none" xmlns="http://www.w3.org/2000/svg">
<path fill-rule="evenodd" clip-rule="evenodd" d="M133.847 1.90587C153.776 -5.37815 173.747 9.12125 177.184 30.0224C180.622 50.9236 165.965 70.1637 146.995 79.6606C130.356 87.99 115.61 99.9353 103.934 114.801C84.2734 139.834 74.7493 171.322 77.2485 203.03C79.7476 234.738 94.0877 264.354 117.429 286.01C140.769 307.667 171.409 319.786 203.278 319.966C235.147 320.147 265.923 308.376 289.508 286.985C313.094 265.595 327.77 236.144 330.63 204.466C333.49 172.789 324.325 141.194 304.95 115.941C293.444 100.943 278.835 88.8315 262.292 80.314C243.431 70.6027 228.994 51.1977 232.669 30.3369C236.344 9.47598 256.479 -4.79613 276.324 2.71329C311.602 16.0628 342.732 39.0176 365.973 69.3106C397.06 109.83 411.765 160.523 407.177 211.349C402.88 258.94 381.962 303.397 348.25 337.04L319.61 365.623H88.3923L60.294 337.581C25.6819 303.299 4.46406 257.708 0.62856 209.045C-3.3813 158.17 11.8999 107.647 43.4456 67.4829C67.03 37.4552 98.4193 14.8547 133.847 1.90587ZM143.284 420.404L110.959 388.144H297.044L264.719 420.404H143.284ZM165.85 442.925L204.001 481L242.153 442.925H165.85Z" fill="#C20000"/>
</svg>
