<svg width="46" height="42" viewBox="0 0 46 42" fill="none" xmlns="http://www.w3.org/2000/svg">
<path d="M3 41.5C2.29167 41.5 1.69833 41.26 1.22 40.78C0.741667 40.3 0.501667 39.7066 0.5 39V36.5C0.5 35.7916 0.74 35.1983 1.22 34.72C1.7 34.2416 2.29333 34.0016 3 34C3.70667 33.9983 4.30083 34.2383 4.7825 34.72C5.26417 35.2016 5.50333 35.795 5.5 36.5V39C5.5 39.7083 5.26 40.3025 4.78 40.7825C4.3 41.2625 3.70667 41.5016 3 41.5ZM13 41.5C12.2917 41.5 11.6983 41.26 11.22 40.78C10.7417 40.3 10.5017 39.7066 10.5 39V25.25C10.5 24.5416 10.74 23.9483 11.22 23.47C11.7 22.9916 12.2933 22.7516 13 22.75C13.7067 22.7483 14.3008 22.9883 14.7825 23.47C15.2642 23.9516 15.5033 24.545 15.5 25.25V39C15.5 39.7083 15.26 40.3025 14.78 40.7825C14.3 41.2625 13.7067 41.5016 13 41.5ZM23 41.5C22.2917 41.5 21.6983 41.26 21.22 40.78C20.7417 40.3 20.5017 39.7066 20.5 39V30.25C20.5 29.5416 20.74 28.9483 21.22 28.47C21.7 27.9916 22.2933 27.7516 23 27.75C23.7067 27.7483 24.3008 27.9883 24.7825 28.47C25.2642 28.9516 25.5033 29.545 25.5 30.25V39C25.5 39.7083 25.26 40.3025 24.78 40.7825C24.3 41.2625 23.7067 41.5016 23 41.5ZM33 41.5C32.2917 41.5 31.6983 41.26 31.22 40.78C30.7417 40.3 30.5017 39.7066 30.5 39V26.5C30.5 25.7916 30.74 25.1983 31.22 24.72C31.7 24.2416 32.2933 24.0016 33 24C33.7067 23.9983 34.3008 24.2383 34.7825 24.72C35.2642 25.2016 35.5033 25.795 35.5 26.5V39C35.5 39.7083 35.26 40.3025 34.78 40.7825C34.3 41.2625 33.7067 41.5016 33 41.5ZM43 41.5C42.2917 41.5 41.6983 41.26 41.22 40.78C40.7417 40.3 40.5017 39.7066 40.5 39V16.5C40.5 15.7916 40.74 15.1983 41.22 14.72C41.7 14.2416 42.2933 14.0016 43 14C43.7067 13.9983 44.3008 14.2383 44.7825 14.72C45.2642 15.2016 45.5033 15.795 45.5 16.5V39C45.5 39.7083 45.26 40.3025 44.78 40.7825C44.3 41.2625 43.7067 41.5016 43 41.5ZM28 18.9375C27.3333 18.9375 26.6975 18.8125 26.0925 18.5625C25.4875 18.3125 24.9358 17.9583 24.4375 17.5L18 11.0625L4.75 24.3125C4.25 24.8125 3.65667 25.0525 2.97 25.0325C2.28333 25.0125 1.68917 24.7516 1.1875 24.25C0.729167 23.75 0.510833 23.1566 0.5325 22.47C0.554167 21.7833 0.793333 21.21 1.25 20.75L14.4375 7.56246C14.9375 7.06246 15.49 6.6983 16.095 6.46996C16.7 6.24163 17.335 6.12663 18 6.12496C18.665 6.1233 19.3108 6.2383 19.9375 6.46996C20.5642 6.70163 21.1058 7.0658 21.5625 7.56246L28 14L41.25 0.749962C41.75 0.249962 42.3442 0.00996244 43.0325 0.0299624C43.7208 0.0499624 44.3142 0.310795 44.8125 0.812462C45.2708 1.31246 45.49 1.90663 45.47 2.59496C45.45 3.2833 45.21 3.8558 44.75 4.31246L31.5625 17.5C31.1042 17.9583 30.5625 18.3125 29.9375 18.5625C29.3125 18.8125 28.6667 18.9375 28 18.9375Z" fill="#DB1222"/>
</svg>
