<svg width="257" height="35" viewBox="0 0 257 35" fill="none" xmlns="http://www.w3.org/2000/svg">
<path d="M16.8 1.944C25.68 1.944 32.88 9.144 32.88 18.024C32.88 26.904 25.68 34.104 16.8 34.104C7.92 34.104 0.72 26.904 0.72 18.024C0.72 9.144 7.92 1.944 16.8 1.944ZM23.424 24.648C25.2 22.872 26.16 20.52 26.16 18.024C26.16 15.528 25.2 13.176 23.424 11.4C21.648 9.624 19.296 8.664 16.8 8.664C14.304 8.664 11.952 9.624 10.176 11.4C8.4 13.176 7.44 15.528 7.44 18.024C7.44 20.52 8.4 22.872 10.176 24.648C11.952 26.376 14.304 27.384 16.8 27.384C19.296 27.384 21.648 26.376 23.424 24.648ZM61.4036 24.264L66.2036 29.064C63.3716 31.416 59.7716 32.856 55.7876 32.856C46.9556 32.856 39.7556 25.656 39.7556 16.824C39.7556 7.944 46.9556 0.743998 55.7876 0.743998C59.7716 0.743998 63.3716 2.184 66.2036 4.584L61.4036 9.336C59.8196 8.136 57.8516 7.464 55.7876 7.464C53.2916 7.464 50.9876 8.424 49.2116 10.2C47.4356 11.976 46.4756 14.328 46.4756 16.824C46.4756 19.32 47.4356 21.624 49.2116 23.4C50.9876 25.176 53.2916 26.136 55.7876 26.136C57.8516 26.136 59.8196 25.464 61.4036 24.264ZM97.3301 9.288H89.2181V33H81.7301V9.288H73.6181V1.8H97.3301V9.288ZM117.45 1.944C126.33 1.944 133.53 9.144 133.53 18.024C133.53 26.904 126.33 34.104 117.45 34.104C108.57 34.104 101.37 26.904 101.37 18.024C101.37 9.144 108.57 1.944 117.45 1.944ZM124.074 24.648C125.85 22.872 126.81 20.52 126.81 18.024C126.81 15.528 125.85 13.176 124.074 11.4C122.298 9.624 119.946 8.664 117.45 8.664C114.954 8.664 112.602 9.624 110.826 11.4C109.05 13.176 108.09 15.528 108.09 18.024C108.09 20.52 109.05 22.872 110.826 24.648C112.602 26.376 114.954 27.384 117.45 27.384C119.946 27.384 122.298 26.376 124.074 24.648ZM163.551 15.528C163.551 15.528 167.391 17.256 167.391 24.024C167.391 32.28 158.415 33 158.415 33H141.471V1.8H155.919C155.919 1.8 163.023 1.8 164.799 7.896C166.095 12.264 163.551 15.528 163.551 15.528ZM148.959 7.608V14.568H155.631C157.551 14.568 159.135 13.032 159.135 11.112C159.135 9.144 157.551 7.608 155.631 7.608H148.959ZM161.535 23.784C161.535 21.864 159.999 20.28 158.079 20.28H148.959V27.24H158.079C159.999 27.24 161.535 25.704 161.535 23.784ZM181.147 20.76V26.28H195.451V33H173.659V1.8H195.451V8.52H181.147V14.04H193.291V20.76H181.147ZM210.603 20.76V26.28H224.907V33H203.115V1.8H224.907V8.52H210.603V14.04H222.747V20.76H210.603ZM243.604 33.048C241.54 33.048 239.668 32.76 238.036 32.136C236.5 31.512 235.252 30.6 234.1 29.592C230.452 26.232 230.932 21.768 230.932 21.336L237.508 21.432V21.384C237.508 21.384 237.508 23.16 238.276 24.312C239.236 25.752 241.012 26.472 243.604 26.472C247.924 26.472 249.844 25.368 249.844 23.544C249.844 21.624 247.396 20.424 243.412 19.992C240.964 19.704 238.804 19.176 237.076 18.456C235.444 17.784 234.1 16.872 233.092 15.768C231.652 14.184 230.932 12.312 230.932 10.2C230.932 7.272 232.084 5.304 233.092 4.152C235.3 1.656 238.852 0.36 243.748 0.36C250.18 0.36 253.348 3.192 254.884 5.544C256.516 8.088 256.612 11.016 256.612 11.496H250.036V11.544C250.036 11.544 250.084 10.104 249.316 9.096C248.356 7.752 246.436 6.936 243.748 6.936C240.964 6.936 237.748 7.656 237.748 9.768C237.748 11.784 239.86 12.984 244.132 13.464C248.884 13.992 252.388 15.48 254.5 17.928C255.892 19.56 256.612 21.48 256.612 23.544C256.612 24.552 256.612 27.096 254.548 29.4C253.492 30.6 252.052 31.512 250.276 32.136C248.452 32.76 246.244 33.048 243.604 33.048Z" fill="#FAFAFA"/>
</svg>
