<svg width="652" height="458" viewBox="0 0 652 458" fill="none" xmlns="http://www.w3.org/2000/svg">
<g clip-path="url(#clip0_35_216)">
<path d="M532.536 287.233H112.609C109.743 287.23 106.995 286.087 104.968 284.057C102.941 282.026 101.8 279.273 101.797 276.401V16.9984C101.8 14.8945 102.635 12.8775 104.12 11.3898C105.605 9.90214 107.618 9.06529 109.718 9.06287H535.29C537.426 9.0653 539.474 9.91661 540.985 11.43C542.496 12.9434 543.345 14.9953 543.348 17.1356V276.401C543.344 279.273 542.204 282.026 540.177 284.057C538.15 286.087 535.402 287.23 532.536 287.233Z" fill="#F2F2F2"/>
<path d="M517.217 271.893H125.857C120.12 271.893 115.453 267.515 115.453 262.133V36.2418C115.453 32.2505 118.911 29.0031 123.162 29.0031H519.784C524.105 29.0031 527.621 32.304 527.621 36.361V262.133C527.621 267.515 522.954 271.893 517.217 271.893Z" fill="white"/>
<path d="M543.197 16.3788H101.646V10.8643C101.65 7.98302 102.794 5.22104 104.829 3.1843C106.863 1.14756 109.621 0.00238042 112.497 0H532.346C535.222 0.00236654 537.98 1.14754 540.014 3.18428C542.048 5.22103 543.193 7.98301 543.197 10.8643V16.3788Z" fill="#CCCCCC"/>
<path d="M121.366 11.0177C122.916 11.0177 124.173 9.75872 124.173 8.20576C124.173 6.65279 122.916 5.39386 121.366 5.39386C119.816 5.39386 118.559 6.65279 118.559 8.20576C118.559 9.75872 119.816 11.0177 121.366 11.0177Z" fill="white"/>
<path d="M132.02 11.0177C133.57 11.0177 134.827 9.75872 134.827 8.20576C134.827 6.65279 133.57 5.39386 132.02 5.39386C130.47 5.39386 129.214 6.65279 129.214 8.20576C129.214 9.75872 130.47 11.0177 132.02 11.0177Z" fill="white"/>
<path d="M142.674 11.0177C144.224 11.0177 145.481 9.75872 145.481 8.20576C145.481 6.65279 144.224 5.39386 142.674 5.39386C141.124 5.39386 139.867 6.65279 139.867 8.20576C139.867 9.75872 141.124 11.0177 142.674 11.0177Z" fill="white"/>
<path d="M474.14 234.008H170.853C167.813 234.004 164.898 232.793 162.748 230.639C160.598 228.486 159.389 225.566 159.386 222.52V76.0282C159.388 73.7503 160.293 71.5664 161.9 69.9556C163.508 68.3449 165.688 67.4388 167.962 67.4362H476.894C479.204 67.4388 481.419 68.3593 483.053 69.9958C484.686 71.6323 485.605 73.8511 485.607 76.1654V222.52C485.604 225.566 484.395 228.486 482.245 230.639C480.095 232.793 477.18 234.004 474.14 234.008ZM167.962 68.7491C166.035 68.7513 164.189 69.5189 162.827 70.8835C161.464 72.2481 160.698 74.0983 160.696 76.0282V222.52C160.699 225.217 161.77 227.804 163.674 229.711C165.578 231.619 168.16 232.692 170.853 232.695H474.14C476.833 232.692 479.415 231.619 481.319 229.711C483.223 227.804 484.294 225.217 484.297 222.52V76.1654C484.295 74.1991 483.514 72.3141 482.126 70.9237C480.738 69.5334 478.857 68.7513 476.894 68.7491H167.962Z" fill="#CCCCCC"/>
<path d="M181.337 222.52H463.656C466.436 222.52 469.103 221.413 471.069 219.443C473.036 217.474 474.14 214.802 474.14 212.016V89.5551C474.14 86.7695 473.036 84.0979 471.069 82.1281C469.103 80.1584 466.436 79.0518 463.656 79.0518H181.337C178.557 79.0518 175.89 80.1584 173.924 82.1281C171.958 84.0979 170.853 86.7695 170.853 89.5551V212.016C170.853 214.802 171.958 217.474 173.924 219.443C175.89 221.413 178.557 222.52 181.337 222.52Z" fill="#F2F2F2"/>
<path d="M213.393 114.68C216.65 114.68 219.291 112.035 219.291 108.772C219.291 105.509 216.65 102.864 213.393 102.864C210.136 102.864 207.496 105.509 207.496 108.772C207.496 112.035 210.136 114.68 213.393 114.68Z" fill="#CCCCCC"/>
<path d="M213.393 137C216.65 137 219.291 134.355 219.291 131.092C219.291 127.829 216.65 125.184 213.393 125.184C210.136 125.184 207.496 127.829 207.496 131.092C207.496 134.355 210.136 137 213.393 137Z" fill="#CCCCCC"/>
<path d="M213.393 159.32C216.65 159.32 219.291 156.675 219.291 153.412C219.291 150.149 216.65 147.503 213.393 147.503C210.136 147.503 207.496 150.149 207.496 153.412C207.496 156.675 210.136 159.32 213.393 159.32Z" fill="#CCCCCC"/>
<path d="M213.393 181.639C216.65 181.639 219.291 178.994 219.291 175.731C219.291 172.468 216.65 169.823 213.393 169.823C210.136 169.823 207.496 172.468 207.496 175.731C207.496 178.994 210.136 181.639 213.393 181.639Z" fill="#CCCCCC"/>
<path d="M436.842 109.429H242.88C242.707 109.429 242.54 109.36 242.417 109.237C242.294 109.113 242.225 108.946 242.225 108.772C242.225 108.598 242.294 108.431 242.417 108.308C242.54 108.185 242.707 108.116 242.88 108.116H436.842C437.016 108.116 437.183 108.185 437.306 108.308C437.429 108.431 437.498 108.598 437.498 108.772C437.498 108.946 437.429 109.113 437.306 109.237C437.183 109.36 437.016 109.429 436.842 109.429Z" fill="#CCCCCC"/>
<path d="M436.842 131.748H242.88C242.707 131.748 242.54 131.679 242.417 131.556C242.294 131.433 242.225 131.266 242.225 131.092C242.225 130.918 242.294 130.751 242.417 130.628C242.54 130.505 242.707 130.436 242.88 130.436H436.842C437.016 130.436 437.183 130.505 437.306 130.628C437.429 130.751 437.498 130.918 437.498 131.092C437.498 131.266 437.429 131.433 437.306 131.556C437.183 131.679 437.016 131.748 436.842 131.748Z" fill="#CCCCCC"/>
<path d="M436.842 154.068H242.88C242.707 154.068 242.54 153.999 242.417 153.876C242.294 153.753 242.225 153.586 242.225 153.412C242.225 153.238 242.294 153.071 242.417 152.947C242.54 152.824 242.707 152.755 242.88 152.755H436.842C437.016 152.755 437.183 152.824 437.306 152.947C437.429 153.071 437.498 153.238 437.498 153.412C437.498 153.586 437.429 153.753 437.306 153.876C437.183 153.999 437.016 154.068 436.842 154.068Z" fill="#CCCCCC"/>
<path d="M436.842 176.388H242.88C242.707 176.388 242.54 176.319 242.417 176.195C242.294 176.072 242.225 175.905 242.225 175.731C242.225 175.557 242.294 175.39 242.417 175.267C242.54 175.144 242.707 175.075 242.88 175.075H436.842C437.016 175.075 437.183 175.144 437.306 175.267C437.429 175.39 437.498 175.557 437.498 175.731C437.498 175.905 437.429 176.072 437.306 176.195C437.183 176.319 437.016 176.388 436.842 176.388Z" fill="#CCCCCC"/>
<path d="M279.576 198.707H260.573C259.704 198.706 258.872 198.36 258.257 197.745C257.643 197.13 257.298 196.295 257.297 195.425V177.701C257.298 176.83 257.643 175.996 258.257 175.381C258.872 174.766 259.704 174.419 260.573 174.418H279.576C280.445 174.419 281.277 174.766 281.892 175.381C282.506 175.996 282.851 176.83 282.852 177.701V195.425C282.851 196.295 282.506 197.13 281.892 197.745C281.277 198.36 280.445 198.706 279.576 198.707Z" fill="#B3000B"/>
<path d="M322.169 198.707H303.166C302.297 198.706 301.465 198.36 300.85 197.745C300.236 197.13 299.891 196.295 299.89 195.425V155.381C299.891 154.511 300.236 153.677 300.85 153.061C301.465 152.446 302.297 152.1 303.166 152.099H322.169C323.038 152.1 323.87 152.446 324.485 153.061C325.099 153.677 325.444 154.511 325.445 155.381V195.425C325.444 196.295 325.099 197.13 324.485 197.745C323.87 198.36 323.038 198.706 322.169 198.707Z" fill="#B3000B"/>
<path d="M365.417 198.707H346.414C345.546 198.706 344.713 198.36 344.099 197.745C343.484 197.13 343.139 196.295 343.138 195.425V133.061C343.139 132.191 343.484 131.357 344.099 130.742C344.713 130.126 345.546 129.78 346.414 129.779H365.417C366.286 129.78 367.119 130.126 367.733 130.742C368.347 131.357 368.693 132.191 368.694 133.061V195.425C368.693 196.295 368.347 197.13 367.733 197.745C367.119 198.36 366.286 198.706 365.417 198.707Z" fill="#B3000B"/>
<path d="M409.976 198.707H390.973C390.104 198.706 389.271 198.36 388.657 197.745C388.043 197.13 387.698 196.295 387.697 195.425V111.398C387.698 110.528 388.043 109.694 388.657 109.078C389.271 108.463 390.104 108.117 390.973 108.116H409.976C410.845 108.117 411.677 108.463 412.292 109.078C412.906 109.694 413.251 110.528 413.252 111.398V195.425C413.251 196.295 412.906 197.13 412.292 197.745C411.677 198.36 410.845 198.706 409.976 198.707Z" fill="#B3000B"/>
<path d="M436.842 198.707H242.88C242.707 198.707 242.54 198.638 242.417 198.515C242.294 198.392 242.225 198.225 242.225 198.051C242.225 197.877 242.294 197.71 242.417 197.587C242.54 197.464 242.707 197.395 242.88 197.395H436.842C437.016 197.395 437.183 197.464 437.306 197.587C437.429 197.71 437.498 197.877 437.498 198.051C437.498 198.225 437.429 198.392 437.306 198.515C437.183 198.638 437.016 198.707 436.842 198.707Z" fill="#3F3D56"/>
<path d="M522.06 321.169C522.591 320.363 523.291 319.685 524.113 319.18C524.934 318.676 525.855 318.358 526.812 318.248C527.77 318.139 528.739 318.242 529.652 318.549C530.566 318.855 531.401 319.359 532.099 320.024L552.907 309.266L551.613 321.387L532.051 329.745C530.858 330.846 529.304 331.47 527.682 331.499C526.061 331.528 524.485 330.96 523.253 329.903C522.021 328.846 521.22 327.373 521 325.763C520.78 324.153 521.157 322.518 522.06 321.169Z" fill="#FFB8B8"/>
<path d="M539.964 325.689C539.491 325.318 539.143 324.812 538.965 324.237L537.31 318.881C537.132 318.301 537.137 317.68 537.323 317.102C537.509 316.524 537.867 316.017 538.35 315.65L555.215 302.889L573.481 268.942C574.246 267.954 575.198 267.128 576.282 266.509C577.366 265.891 578.561 265.492 579.798 265.336C581.036 265.18 582.292 265.269 583.496 265.6C584.699 265.93 585.825 266.495 586.81 267.261C587.796 268.028 588.621 268.981 589.238 270.067C589.856 271.153 590.254 272.35 590.409 273.59C590.565 274.83 590.475 276.089 590.146 277.294C589.816 278.499 589.252 279.627 588.487 280.615L578.095 302.587C574.942 309.256 569.479 314.55 562.721 317.486L542.956 326.074C542.575 326.239 542.165 326.322 541.751 326.318C541.337 326.313 540.928 326.221 540.551 326.048C540.342 325.952 540.145 325.832 539.964 325.689Z" fill="#3F3D56"/>
<path d="M588.946 254.774C597.835 254.774 605.04 247.555 605.04 238.65C605.04 229.746 597.835 222.527 588.946 222.527C580.058 222.527 572.852 229.746 572.852 238.65C572.852 247.555 580.058 254.774 588.946 254.774Z" fill="#FFB8B8"/>
<path d="M582.417 450.159L574.384 450.159L570.563 419.116L582.421 419.116L582.417 450.159Z" fill="#FFB8B8"/>
<path d="M568.646 447.859H584.139V457.631H558.891C558.891 456.348 559.143 455.077 559.633 453.892C560.124 452.706 560.842 451.629 561.748 450.721C562.654 449.814 563.729 449.094 564.913 448.603C566.096 448.112 567.365 447.859 568.646 447.859Z" fill="#2F2E41"/>
<path d="M608.629 450.16L600.596 450.16L596.775 419.116L608.632 419.118L608.629 450.16Z" fill="#FFB8B8"/>
<path d="M594.857 447.86H610.35V457.633H585.102C585.102 456.349 585.354 455.078 585.844 453.893C586.335 452.707 587.053 451.63 587.959 450.722C588.865 449.815 589.94 449.095 591.124 448.604C592.307 448.113 593.576 447.86 594.857 447.86Z" fill="#2F2E41"/>
<path d="M609.216 442.283L599.801 442.283C599.153 442.282 598.523 442.067 598.009 441.673C597.494 441.278 597.124 440.724 596.954 440.097L583.404 389.746C583.382 389.668 583.333 389.6 583.265 389.556C583.197 389.512 583.115 389.495 583.035 389.508C582.954 389.521 582.882 389.563 582.831 389.627C582.781 389.69 582.755 389.77 582.76 389.851L585.497 437.604C585.522 438.026 585.455 438.448 585.302 438.843C585.15 439.237 584.914 439.594 584.612 439.889C584.309 440.184 583.947 440.411 583.55 440.553C583.153 440.696 582.729 440.752 582.308 440.717L571.727 439.833C571.049 439.775 570.412 439.484 569.923 439.01C569.434 438.536 569.123 437.907 569.043 437.23L559.404 336.959L563.133 339.202L598.078 333.258L612.139 438.939C612.194 439.356 612.16 439.78 612.039 440.183C611.917 440.586 611.711 440.959 611.434 441.275C611.158 441.592 610.816 441.846 610.434 442.019C610.051 442.193 609.636 442.283 609.216 442.283Z" fill="#2F2E41"/>
<path d="M571.091 347.543C567.236 347.512 563.459 346.447 560.153 344.459C559.644 344.157 559.238 343.707 558.988 343.17C558.738 342.632 558.656 342.031 558.753 341.446C559.982 333.906 566.41 295.226 572.257 274.14C574.639 265.552 579.905 260.926 587.91 260.391C599.618 259.622 610.025 268.799 611.109 280.873C613.021 302.174 605.255 332.438 601.828 344.461C601.695 344.926 601.45 345.35 601.116 345.698C600.781 346.045 600.366 346.305 599.907 346.455C599.449 346.604 598.961 346.639 598.486 346.555C598.011 346.472 597.564 346.273 597.184 345.975L590.197 340.531C589.767 340.202 589.236 340.034 588.695 340.057C588.155 340.079 587.639 340.291 587.238 340.655C581.35 345.916 575.756 347.543 571.091 347.543Z" fill="#3F3D56"/>
<path opacity="0.2" d="M594.196 291.296L600.093 316.243L591.573 337.249L597.472 316.899L594.196 291.296Z" fill="black"/>
<path d="M598.13 251.909C599.561 251.936 600.984 251.678 602.316 251.151C602.902 250.925 603.51 250.739 604.095 250.512C609.259 248.514 612.662 243.003 612.784 237.458C612.906 231.913 610.04 226.53 605.783 222.983C601.527 219.436 596.013 217.614 590.493 217.193C584.546 216.739 577.849 218.25 574.526 223.211C573.642 224.531 573.023 226.134 573.547 227.728C573.704 228.209 573.984 228.641 574.36 228.979C575.844 230.302 577.323 229.308 578.836 229.22C580.916 229.099 582.783 230.786 583.454 232.761C584.126 234.736 583.83 236.911 583.288 238.925C582.875 240.138 582.615 241.397 582.513 242.674C582.469 243.314 582.589 243.955 582.862 244.536C583.135 245.116 583.551 245.618 584.071 245.992C585.371 246.779 587.077 246.324 588.377 245.538C589.677 244.753 590.801 243.661 592.205 243.083C593.609 242.505 595.496 242.633 596.314 243.915C596.573 244.381 596.749 244.89 596.833 245.417C597.565 248.762 597.397 248.565 598.13 251.909Z" fill="#2F2E41"/>
<path d="M573.184 427.639L472.405 392.479C470.676 391.873 469.257 390.605 468.46 388.953C467.663 387.301 467.552 385.399 468.153 383.665L494.341 308.331C494.784 307.062 495.711 306.02 496.919 305.435C498.128 304.85 499.518 304.769 500.786 305.209L604.972 341.559C606.261 342.01 607.318 342.955 607.913 344.186C608.507 345.418 608.589 346.835 608.141 348.127L581.982 423.379C581.377 425.111 580.112 426.533 578.462 427.331C576.813 428.13 574.915 428.241 573.184 427.639Z" fill="#E6E6E6"/>
<path d="M481.005 388.149L569.129 418.895C570.807 419.48 572.649 419.374 574.249 418.599C575.849 417.824 577.076 416.445 577.66 414.763L598.807 353.931C599.392 352.25 599.286 350.405 598.512 348.803C597.739 347.2 596.362 345.971 594.683 345.385L506.559 314.64C504.881 314.054 503.04 314.161 501.44 314.935C499.84 315.71 498.613 317.09 498.028 318.771L476.881 379.603C476.592 380.435 476.469 381.317 476.52 382.197C476.57 383.077 476.794 383.938 477.176 384.732C477.559 385.525 478.095 386.236 478.752 386.822C479.409 387.408 480.174 387.859 481.005 388.149Z" fill="white"/>
<path d="M503.134 345.409L498.77 343.887C498.534 343.804 498.339 343.63 498.23 343.404C498.121 343.178 498.106 342.918 498.188 342.681L499.708 338.309C499.791 338.072 499.964 337.877 500.19 337.768C500.415 337.659 500.675 337.644 500.912 337.726L505.276 339.249C505.513 339.331 505.707 339.505 505.816 339.731C505.925 339.957 505.94 340.217 505.858 340.454L504.338 344.827C504.255 345.064 504.082 345.258 503.857 345.367C503.631 345.477 503.371 345.492 503.134 345.409Z" fill="#B3000B"/>
<path d="M499.196 356.737L494.832 355.215C494.595 355.132 494.401 354.958 494.292 354.732C494.183 354.506 494.168 354.246 494.25 354.009L495.77 349.637C495.853 349.4 496.026 349.205 496.252 349.096C496.477 348.987 496.737 348.972 496.974 349.054L501.338 350.577C501.575 350.659 501.769 350.833 501.878 351.059C501.987 351.285 502.002 351.545 501.92 351.782L500.4 356.154C500.317 356.391 500.144 356.586 499.918 356.695C499.693 356.805 499.433 356.82 499.196 356.737Z" fill="#3F3D56"/>
<path d="M495.258 368.065L490.894 366.543C490.658 366.46 490.463 366.286 490.354 366.06C490.245 365.834 490.23 365.574 490.312 365.337L491.832 360.965C491.915 360.728 492.088 360.533 492.314 360.424C492.539 360.315 492.799 360.3 493.036 360.382L497.4 361.905C497.637 361.987 497.831 362.161 497.94 362.387C498.049 362.613 498.064 362.873 497.982 363.11L496.462 367.483C496.379 367.72 496.206 367.914 495.981 368.023C495.755 368.133 495.495 368.148 495.258 368.065Z" fill="#CCCCCC"/>
<path d="M532.461 353.19L511.433 345.853C511.315 345.813 511.207 345.749 511.114 345.666C511.021 345.584 510.945 345.483 510.891 345.371C510.836 345.259 510.805 345.138 510.798 345.013C510.79 344.889 510.808 344.764 510.848 344.647C510.889 344.529 510.953 344.421 511.036 344.328C511.119 344.235 511.219 344.159 511.331 344.105C511.443 344.051 511.565 344.019 511.689 344.013C511.813 344.006 511.937 344.023 512.054 344.065L533.082 351.401C533.2 351.442 533.308 351.505 533.401 351.588C533.494 351.671 533.57 351.771 533.624 351.883C533.679 351.995 533.71 352.117 533.718 352.241C533.725 352.365 533.708 352.49 533.667 352.608C533.626 352.725 533.562 352.834 533.479 352.927C533.397 353.02 533.296 353.095 533.184 353.149C533.072 353.203 532.951 353.235 532.826 353.242C532.702 353.249 532.578 353.231 532.461 353.19Z" fill="#CCCCCC"/>
<path d="M528.523 364.518L507.495 357.181C507.258 357.099 507.064 356.925 506.955 356.699C506.845 356.473 506.83 356.213 506.913 355.976C506.995 355.738 507.169 355.544 507.394 355.434C507.62 355.325 507.88 355.31 508.117 355.393L529.145 362.729C529.262 362.77 529.37 362.833 529.463 362.916C529.556 362.999 529.632 363.099 529.686 363.211C529.74 363.323 529.772 363.445 529.779 363.569C529.787 363.693 529.769 363.818 529.728 363.936C529.687 364.053 529.624 364.162 529.541 364.254C529.458 364.347 529.358 364.423 529.246 364.477C529.134 364.531 529.013 364.563 528.888 364.57C528.764 364.577 528.64 364.559 528.523 364.518Z" fill="#CCCCCC"/>
<path d="M524.585 375.846L503.557 368.509C503.32 368.427 503.126 368.253 503.017 368.027C502.907 367.801 502.892 367.541 502.975 367.304C503.057 367.066 503.231 366.872 503.456 366.762C503.682 366.653 503.942 366.638 504.179 366.721L525.207 374.057C525.443 374.14 525.638 374.313 525.747 374.539C525.856 374.765 525.871 375.026 525.788 375.263C525.706 375.5 525.533 375.695 525.307 375.804C525.081 375.913 524.822 375.928 524.585 375.846Z" fill="#CCCCCC"/>
<path d="M580.545 381.983C580.698 381.615 580.842 381.241 580.975 380.859C582.703 375.888 582.389 370.432 580.102 365.692C577.815 360.952 573.742 357.316 568.779 355.585L561.867 375.467L580.545 381.983Z" fill="#B3000B"/>
<path d="M559.857 376.677L566.769 356.794C563.116 355.52 559.171 355.344 555.42 356.289C551.669 357.234 548.276 359.258 545.659 362.111C543.043 364.965 541.317 368.523 540.695 372.348C540.073 376.172 540.582 380.095 542.158 383.633C543.735 387.171 546.311 390.17 549.569 392.259C552.827 394.348 556.623 395.436 560.491 395.389C564.359 395.342 568.128 394.163 571.334 391.995C574.54 389.828 577.043 386.768 578.534 383.193L559.857 376.677Z" fill="#3F3D56"/>
<path d="M584.602 348.156C584.523 347.194 584.657 346.226 584.992 345.322C585.327 344.417 585.857 343.597 586.543 342.919C587.228 342.242 588.054 341.723 588.962 341.4C589.87 341.077 590.837 340.957 591.796 341.049L601.542 319.719L607.991 330.056L597.747 348.727C597.486 350.33 596.647 351.783 595.389 352.808C594.131 353.833 592.541 354.361 590.921 354.291C589.301 354.22 587.762 353.557 586.598 352.426C585.433 351.295 584.723 349.776 584.602 348.156Z" fill="#FFB8B8"/>
<path d="M601.474 340.644C600.874 340.644 600.288 340.461 599.794 340.119L595.193 336.927C594.695 336.58 594.316 336.089 594.106 335.519C593.897 334.95 593.867 334.329 594.021 333.742L599.43 313.274L592.891 275.269C592.884 274.019 593.122 272.779 593.593 271.62C594.065 270.462 594.759 269.408 595.637 268.519C596.515 267.63 597.559 266.923 598.71 266.439C599.861 265.954 601.096 265.702 602.344 265.695C603.593 265.689 604.83 265.93 605.986 266.403C607.141 266.877 608.192 267.574 609.079 268.454C609.965 269.335 610.67 270.382 611.152 271.535C611.634 272.689 611.885 273.926 611.889 275.177L617.248 298.891C618.875 306.088 617.837 313.632 614.328 320.12L604.066 339.097C603.868 339.462 603.596 339.781 603.268 340.033C602.939 340.286 602.561 340.466 602.158 340.563C601.934 340.617 601.705 340.644 601.474 340.644Z" fill="#3F3D56"/>
<path d="M651.345 458H526.842C526.668 458 526.502 457.931 526.379 457.808C526.256 457.685 526.187 457.518 526.187 457.344C526.187 457.169 526.256 457.003 526.379 456.879C526.502 456.756 526.668 456.687 526.842 456.687H651.345C651.519 456.687 651.685 456.756 651.808 456.879C651.931 457.003 652 457.169 652 457.344C652 457.518 651.931 457.685 651.808 457.808C651.685 457.931 651.519 458 651.345 458Z" fill="#CCCCCC"/>
<path d="M321.44 449.832L329.474 449.832L333.295 418.79H321.439L321.44 449.832Z" fill="#A0616A"/>
<path d="M319.391 447.205L335.212 447.204C336.536 447.204 337.847 447.465 339.071 447.973C340.294 448.48 341.405 449.224 342.342 450.162C343.278 451.1 344.021 452.214 344.527 453.439C345.034 454.665 345.295 455.978 345.295 457.305V457.633L319.391 457.634L319.391 447.205Z" fill="#2F2E41"/>
<path d="M289.331 449.832L297.365 449.832L301.187 418.79H289.33L289.331 449.832Z" fill="#A0616A"/>
<path d="M287.282 447.205L303.103 447.204C304.427 447.204 305.739 447.465 306.962 447.973C308.185 448.48 309.297 449.224 310.233 450.162C311.169 451.1 311.912 452.214 312.419 453.439C312.926 454.665 313.186 455.978 313.186 457.305V457.633L287.283 457.634L287.282 447.205Z" fill="#2F2E41"/>
<path d="M323.043 234.92C331.932 234.92 339.138 227.701 339.138 218.796C339.138 209.892 331.932 202.673 323.043 202.673C314.155 202.673 306.949 209.892 306.949 218.796C306.949 227.701 314.155 234.92 323.043 234.92Z" fill="#A0616A"/>
<path d="M333.866 443.132H318.958C318.568 443.132 318.182 443.055 317.822 442.904C317.462 442.753 317.135 442.532 316.861 442.254C316.586 441.976 316.37 441.646 316.224 441.284C316.078 440.921 316.005 440.533 316.01 440.142L316.876 369.224C316.879 368.972 316.786 368.729 316.615 368.544C316.445 368.359 316.21 368.246 315.959 368.229C315.708 368.212 315.46 368.293 315.267 368.453C315.073 368.614 314.948 368.843 314.917 369.093L306.241 440.535C306.154 441.251 305.808 441.911 305.268 442.389C304.729 442.867 304.034 443.132 303.314 443.132H288.263C287.856 443.132 287.454 443.048 287.081 442.885C286.709 442.722 286.374 442.483 286.098 442.184C285.822 441.885 285.611 441.532 285.477 441.147C285.344 440.763 285.291 440.354 285.323 439.948L295.262 312.545L295.532 312.516L343.124 307.367L336.812 440.319C336.777 441.077 336.451 441.793 335.902 442.317C335.354 442.841 334.624 443.133 333.866 443.132Z" fill="#2F2E41"/>
<path d="M295.841 320.367C295.077 320.365 294.343 320.065 293.794 319.532C293.246 318.998 292.927 318.271 292.903 317.505C292.643 309.45 292.198 281.576 297.373 261.112C298.786 255.522 301.956 250.535 306.416 246.89C310.876 243.244 316.388 241.132 322.138 240.868C327.798 240.558 333.411 242.042 338.181 245.108C342.952 248.174 346.637 252.668 348.715 257.951C357.414 280.076 365.633 307.347 355.386 311.624C341.957 317.23 306.553 319.729 296.022 320.361C295.962 320.365 295.901 320.367 295.841 320.367Z" fill="#3F3D56"/>
<path d="M357.353 202.5C357.606 202.761 357.879 203.001 358.169 203.218L356.48 235.73L349.453 239.334L353.496 250.67L366.556 245.5C367.611 245.083 368.502 244.333 369.096 243.365C369.69 242.397 369.954 241.262 369.849 240.13L366.428 203.25C367.547 202.414 368.386 201.255 368.832 199.929C369.279 198.603 369.311 197.173 368.926 195.827C368.541 194.482 367.756 193.287 366.676 192.399C365.596 191.512 364.272 190.975 362.88 190.86C361.488 190.745 360.094 191.057 358.883 191.755C357.673 192.453 356.703 193.504 356.103 194.767C355.503 196.031 355.301 197.448 355.524 198.829C355.748 200.21 356.385 201.491 357.353 202.5Z" fill="#A0616A"/>
<path d="M356.613 236.94L361.557 251.014C361.697 251.414 361.75 251.84 361.712 252.263C361.673 252.686 361.544 253.095 361.333 253.464C361.123 253.832 360.835 254.15 360.49 254.397C360.146 254.644 359.752 254.814 359.336 254.895L344.759 257.722C342.71 258.432 340.463 258.299 338.512 257.351C336.561 256.404 335.065 254.72 334.351 252.669C333.637 250.618 333.765 248.367 334.705 246.41C335.646 244.453 337.322 242.949 339.368 242.229L352.456 235.308C352.831 235.11 353.244 234.995 353.667 234.971C354.09 234.948 354.513 235.015 354.908 235.17C355.302 235.325 355.659 235.563 355.953 235.869C356.247 236.174 356.473 236.54 356.613 236.94Z" fill="#3F3D56"/>
<path d="M287.64 202.5C287.387 202.761 287.114 203.001 286.824 203.218L288.513 235.73L295.541 239.334L291.497 250.67L278.438 245.5C277.383 245.083 276.491 244.333 275.897 243.365C275.304 242.397 275.039 241.262 275.144 240.13L278.566 203.25C277.446 202.414 276.607 201.255 276.161 199.929C275.715 198.603 275.682 197.173 276.067 195.827C276.452 194.482 277.237 193.287 278.317 192.399C279.397 191.512 280.721 190.975 282.113 190.86C283.505 190.745 284.899 191.057 286.11 191.755C287.321 192.453 288.291 193.504 288.891 194.767C289.491 196.031 289.692 197.448 289.469 198.829C289.246 200.21 288.608 201.491 287.64 202.5Z" fill="#A0616A"/>
<path d="M290.086 235.17C290.48 235.015 290.903 234.947 291.326 234.971C291.75 234.995 292.163 235.11 292.537 235.308L305.626 242.229C307.671 242.949 309.348 244.453 310.288 246.41C311.229 248.367 311.356 250.618 310.642 252.669C309.929 254.72 308.432 256.404 306.481 257.351C304.53 258.299 302.283 258.432 300.234 257.722L285.657 254.895C285.241 254.814 284.847 254.644 284.503 254.397C284.158 254.15 283.871 253.832 283.66 253.464C283.449 253.095 283.32 252.686 283.282 252.263C283.243 251.84 283.296 251.414 283.436 251.014L288.38 236.94C288.521 236.539 288.746 236.174 289.04 235.869C289.334 235.563 289.691 235.325 290.086 235.17Z" fill="#3F3D56"/>
<path d="M329.294 221.545C329.21 219.488 329.725 217.451 330.777 215.683C331.829 213.915 333.372 212.492 335.218 211.588C340.111 209.058 343.184 203.661 341.837 198.733C340.113 192.425 331.544 188.334 324.6 190.504C322.721 191.173 320.909 192.016 319.187 193.025L314.65 195.461C312.712 196.433 310.844 197.538 309.058 198.768C306.384 200.742 304.287 203.4 302.988 206.464C301.689 209.527 301.235 212.884 301.673 216.184C302.567 222.597 306.759 228.478 312.497 232.504C314.691 234.147 317.226 235.276 319.914 235.807C322.664 236.261 325.726 235.745 327.737 234.031C330.88 231.353 330.555 226.869 329.539 223.123C329.405 222.607 329.323 222.078 329.294 221.545Z" fill="#2F2E41"/>
<path d="M383.992 458H259.49C259.316 458 259.149 457.931 259.026 457.808C258.903 457.685 258.834 457.518 258.834 457.344C258.834 457.169 258.903 457.003 259.026 456.879C259.149 456.756 259.316 456.687 259.49 456.687H383.992C384.166 456.687 384.332 456.756 384.455 456.879C384.578 457.003 384.647 457.169 384.647 457.344C384.647 457.518 384.578 457.685 384.455 457.808C384.332 457.931 384.166 458 383.992 458Z" fill="#CCCCCC"/>
<path d="M180.797 338.244L78.0647 380.465C76.3004 381.188 74.3219 381.18 72.5634 380.443C70.8048 379.707 69.4098 378.301 68.6843 376.535L37.2364 299.741C36.7078 298.446 36.7135 296.994 37.2522 295.703C37.791 294.412 38.8188 293.388 40.1101 292.856L146.315 249.207C147.63 248.668 149.105 248.674 150.416 249.223C151.726 249.772 152.766 250.82 153.307 252.136L184.72 328.846C185.441 330.614 185.434 332.596 184.698 334.357C183.963 336.119 182.56 337.517 180.797 338.244Z" fill="#E6E6E6"/>
<path d="M81.786 371.151L171.618 334.231C173.329 333.528 174.691 332.173 175.404 330.464C176.118 328.755 176.124 326.832 175.422 325.118L150.028 263.107C149.681 262.258 149.17 261.487 148.525 260.836C147.879 260.185 147.113 259.668 146.268 259.314C145.423 258.961 144.517 258.777 143.602 258.774C142.686 258.771 141.779 258.948 140.932 259.296L51.0998 296.216C50.2527 296.564 49.4825 297.076 48.8329 297.723C48.1833 298.369 47.6672 299.137 47.3139 299.983C46.9607 300.829 46.7773 301.737 46.7742 302.654C46.7711 303.571 46.9484 304.48 47.2959 305.329L72.6899 367.34C73.0374 368.189 73.5483 368.96 74.1935 369.611C74.8386 370.262 75.6055 370.779 76.4501 371.133C77.2948 371.487 78.2007 371.67 79.1163 371.673C80.0318 371.676 80.939 371.499 81.786 371.151Z" fill="white"/>
<path d="M149.532 280.018L148.211 280.561L148.301 280.782L149.622 280.239L149.532 280.018Z" fill="#E6E6E6"/>
<path d="M145.633 281.878L142.965 282.975L142.875 282.754L145.543 281.658L145.633 281.878ZM140.297 284.071L137.629 285.168L137.539 284.948L140.207 283.851L140.297 284.071ZM134.961 286.265L132.293 287.361L132.202 287.141L134.87 286.044L134.961 286.265ZM129.625 288.458L126.956 289.554L126.866 289.334L129.534 288.237L129.625 288.458ZM124.288 290.651L121.62 291.747L121.53 291.527L124.198 290.43L124.288 290.651ZM118.952 292.844L116.284 293.941L116.194 293.72L118.862 292.624L118.952 292.844ZM113.616 295.037L110.948 296.134L110.857 295.913L113.525 294.817L113.616 295.037ZM108.28 297.23L105.611 298.327L105.521 298.106L108.189 297.01L108.28 297.23ZM102.943 299.423L100.275 300.52L100.185 300.3L102.853 299.203L102.943 299.423ZM97.607 301.617L94.9389 302.713L94.8486 302.493L97.5167 301.396L97.607 301.617ZM92.2708 303.81L89.6027 304.906L89.5123 304.686L92.1805 303.589L92.2708 303.81ZM86.9345 306.003L84.2664 307.099L84.1761 306.879L86.8442 305.782L86.9345 306.003ZM81.5983 308.196L78.9302 309.293L78.8399 309.072L81.508 307.976L81.5983 308.196ZM76.262 310.389L73.5939 311.486L73.5036 311.265L76.1717 310.169L76.262 310.389ZM70.9258 312.582L68.2577 313.679L68.1674 313.458L70.8355 312.362L70.9258 312.582ZM65.5895 314.775L62.9214 315.872L62.8311 315.652L65.4992 314.555L65.5895 314.775Z" fill="#E6E6E6"/>
<path d="M60.163 316.748L58.8423 317.291L58.9326 317.511L60.2533 316.968L60.163 316.748Z" fill="#E6E6E6"/>
<path d="M114.566 318.349L113.246 318.891L113.336 319.112L114.657 318.569L114.566 318.349Z" fill="#E6E6E6"/>
<path d="M110.707 320.192L108.079 321.272L107.989 321.052L110.617 319.972L110.707 320.192ZM105.45 322.353L102.822 323.433L102.732 323.213L105.36 322.132L105.45 322.353ZM100.193 324.513L97.565 325.594L97.4747 325.373L100.103 324.293L100.193 324.513ZM94.9365 326.674L92.308 327.754L92.2177 327.534L94.8462 326.453L94.9365 326.674ZM89.6795 328.834L87.051 329.915L86.9606 329.694L89.5892 328.614L89.6795 328.834ZM84.4225 330.995L81.794 332.075L81.7037 331.855L84.3322 330.775L84.4225 330.995ZM79.1655 333.156L76.537 334.236L76.4467 334.015L79.0752 332.935L79.1655 333.156ZM73.9085 335.316L71.28 336.396L71.1897 336.176L73.8182 335.096L73.9085 335.316Z" fill="#E6E6E6"/>
<path d="M68.5612 337.256L67.2405 337.799L67.3308 338.019L68.6515 337.477L68.5612 337.256Z" fill="#E6E6E6"/>
<path d="M92.7857 338.636L91.465 339.179L91.5553 339.399L92.876 338.857L92.7857 338.636Z" fill="#E6E6E6"/>
<path d="M88.851 340.511L86.1467 341.622L86.0564 341.402L88.7607 340.29L88.851 340.511ZM83.4423 342.734L80.738 343.845L80.6477 343.625L83.352 342.513L83.4423 342.734ZM78.0336 344.957L75.3293 346.068L75.239 345.848L77.9433 344.736L78.0336 344.957Z" fill="#E6E6E6"/>
<path d="M72.5346 346.959L71.2139 347.502L71.3042 347.722L72.6249 347.179L72.5346 346.959Z" fill="#E6E6E6"/>
<path d="M99.5663 355.194L98.2456 355.737L98.3359 355.957L99.6566 355.415L99.5663 355.194Z" fill="#E6E6E6"/>
<path d="M95.6316 357.069L92.9273 358.18L92.837 357.96L95.5413 356.848L95.6316 357.069ZM90.2229 359.292L87.5186 360.403L87.4283 360.183L90.1326 359.071L90.2229 359.292ZM84.8143 361.515L82.11 362.626L82.0197 362.406L84.724 361.294L84.8143 361.515Z" fill="#E6E6E6"/>
<path d="M79.3152 363.517L77.9945 364.06L78.0848 364.28L79.4055 363.738L79.3152 363.517Z" fill="#E6E6E6"/>
<path d="M85.6003 361.389L161.727 330.102C163.57 329.342 165.036 327.882 165.805 326.04C166.573 324.199 166.581 322.127 165.827 320.28L150.446 282.72L150.297 282.786L131.616 327.535L117.76 321.732C117.505 321.624 117.228 321.577 116.951 321.594C116.674 321.611 116.405 321.693 116.165 321.832C115.804 322.049 115.525 322.38 115.37 322.772L105.58 346.222L95.4492 341.98C95.2306 341.888 94.9961 341.841 94.7591 341.84C94.5222 341.839 94.2874 341.885 94.0681 341.975C93.8489 342.065 93.6495 342.198 93.4814 342.365C93.3133 342.532 93.1798 342.731 93.0884 342.95C93.0236 343.109 86.7772 358.463 85.6003 361.389Z" fill="#B3000B"/>
<path d="M85.366 361.743L85.1465 361.651L92.98 342.885C93.1874 342.39 93.5825 341.997 94.0785 341.793C94.5746 341.589 95.1311 341.591 95.626 341.798L105.556 345.958L115.291 322.637C115.499 322.142 115.894 321.749 116.39 321.545C116.886 321.341 117.442 321.343 117.937 321.55L131.593 327.271L150.37 282.288L150.59 282.38L131.72 327.583L117.845 321.77C117.629 321.679 117.397 321.632 117.163 321.631C116.929 321.631 116.697 321.676 116.48 321.765C116.263 321.854 116.066 321.985 115.9 322.151C115.733 322.316 115.601 322.513 115.511 322.729L105.684 346.27L95.5342 342.018C95.0975 341.835 94.6065 341.834 94.1688 342.014C93.7312 342.194 93.3826 342.54 93.1995 342.977L85.366 361.743Z" fill="#3F3D56"/>
<path d="M92.8309 340.415C93.7507 340.415 94.4963 339.668 94.4963 338.746C94.4963 337.825 93.7507 337.078 92.8309 337.078C91.9111 337.078 91.1654 337.825 91.1654 338.746C91.1654 339.668 91.9111 340.415 92.8309 340.415Z" fill="#3F3D56"/>
<path d="M114.612 320.127C115.531 320.127 116.277 319.38 116.277 318.459C116.277 317.537 115.531 316.79 114.612 316.79C113.692 316.79 112.946 317.537 112.946 318.459C112.946 319.38 113.692 320.127 114.612 320.127Z" fill="#3F3D56"/>
<path d="M148.526 281.738C149.446 281.738 150.192 280.991 150.192 280.07C150.192 279.148 149.446 278.401 148.526 278.401C147.607 278.401 146.861 279.148 146.861 280.07C146.861 280.991 147.607 281.738 148.526 281.738Z" fill="#3F3D56"/>
<path d="M55.306 336.853C56.1718 336.421 56.9326 335.805 57.5348 335.047C58.137 334.289 58.566 333.408 58.7916 332.466C59.0171 331.524 59.0337 330.543 58.8402 329.594C58.6467 328.645 58.2477 327.75 57.6715 326.972L62.618 278.522H51.9282L47.9972 325.831C46.7566 326.887 45.9459 328.363 45.7188 329.978C45.4916 331.593 45.8637 333.235 46.7646 334.594C47.6655 335.953 49.0326 336.933 50.6069 337.349C52.1811 337.766 53.8531 337.589 55.306 336.853Z" fill="#FFB8B8"/>
<path d="M65.1211 251.784C73.4738 251.784 80.2449 245 80.2449 236.633C80.2449 228.265 73.4738 221.482 65.1211 221.482C56.7685 221.482 49.9973 228.265 49.9973 236.633C49.9973 245 56.7685 251.784 65.1211 251.784Z" fill="#FFB8B8"/>
<path d="M67.9684 306.738C67.363 306.737 66.7744 306.538 66.2928 306.171C65.8113 305.803 65.4635 305.287 65.3027 304.703C64.091 300.292 60.9385 292.836 55.933 282.538C54.8036 280.211 54.1781 277.67 54.0977 275.083C54.0173 272.496 54.4838 269.922 55.4665 267.528C56.4492 265.135 57.926 262.976 59.7999 261.195C61.6739 259.413 63.9026 258.049 66.34 257.191C68.6498 256.374 71.0996 256.029 73.5447 256.177C75.9898 256.325 78.3804 256.963 80.575 258.053C82.7697 259.143 84.7238 260.663 86.3219 262.523C87.9199 264.383 89.1294 266.545 89.8787 268.881C93.7585 281.067 93.5712 294.12 93.3105 299.166C93.2782 299.773 93.0478 300.354 92.6548 300.818C92.2618 301.282 91.7277 301.604 91.1344 301.735L68.5627 306.673C68.3675 306.716 68.1682 306.738 67.9684 306.738Z" fill="#DC8A8F"/>
<path d="M89.8266 450.611H97.3754L100.967 421.44L89.8253 421.44L89.8266 450.611Z" fill="#FFB8B8"/>
<path d="M111.935 457.633L88.2091 457.634L88.2086 448.45L102.768 448.45C103.972 448.45 105.164 448.687 106.276 449.149C107.388 449.61 108.398 450.286 109.25 451.139C110.101 451.992 110.776 453.004 111.237 454.118C111.698 455.233 111.935 456.427 111.935 457.633Z" fill="#2F2E41"/>
<path d="M14.3387 440.81L20.9544 444.453L38.1305 420.625L28.3676 415.247L14.3387 440.81Z" fill="#FFB8B8"/>
<path d="M30.3353 457.634L9.54438 446.183L13.9607 438.135L26.7187 445.162C28.8492 446.336 30.4271 448.309 31.1053 450.648C31.7836 452.987 31.5066 455.499 30.3353 457.634Z" fill="#2F2E41"/>
<path d="M89.4738 434.42C88.8011 434.419 88.1516 434.174 87.6464 433.728C87.1413 433.283 86.815 432.669 86.7285 432.001L77.2875 359.118C77.2457 358.796 77.1034 358.495 76.8807 358.258C76.6581 358.022 76.3666 357.862 76.0478 357.801C75.729 357.741 75.3992 357.782 75.1056 357.921C74.8119 358.059 74.5694 358.287 74.4128 358.572L35.0662 430.087C34.7416 430.671 34.2185 431.118 33.5922 431.349C32.9659 431.579 32.2778 431.576 31.6532 431.341L23.0768 428.068C22.7319 427.936 22.4166 427.737 22.1497 427.482C21.8827 427.226 21.6693 426.92 21.5222 426.581C21.375 426.242 21.2969 425.877 21.2926 425.507C21.2882 425.137 21.3577 424.77 21.4968 424.428L48.7532 357.35C48.8222 357.18 48.869 357.001 48.8924 356.819C52.5841 328.193 61.9771 313.637 64.7679 309.857C64.9717 309.579 65.1059 309.256 65.159 308.916C65.2122 308.575 65.1827 308.227 65.0732 307.9L64.6896 306.747C64.5363 306.289 64.5049 305.799 64.5984 305.326C64.692 304.852 64.9072 304.411 65.2228 304.047C75.2791 292.572 92.8067 298.833 92.9826 298.898L93.0704 298.93L93.1254 299.006C112.779 326.008 105.512 413.71 103.856 431.017C103.794 431.668 103.505 432.275 103.039 432.733C102.573 433.19 101.961 433.467 101.311 433.516L89.689 434.412C89.6167 434.417 89.545 434.42 89.4738 434.42Z" fill="#2F2E41"/>
<path d="M123.917 254.232C123.841 254.565 123.792 254.904 123.77 255.244L97.3178 270.532L90.8884 266.824L84.0342 275.813L94.7795 283.485C95.6476 284.105 96.6929 284.426 97.7586 284.4C98.8243 284.374 99.8528 284.002 100.69 283.341L127.966 261.784C129.197 262.24 130.537 262.31 131.809 261.985C133.081 261.66 134.224 260.954 135.085 259.962C135.947 258.97 136.487 257.739 136.633 256.432C136.78 255.126 136.525 253.805 135.904 252.647C135.283 251.488 134.324 250.547 133.156 249.947C131.988 249.348 130.665 249.119 129.364 249.291C128.062 249.463 126.844 250.028 125.871 250.911C124.898 251.794 124.217 252.952 123.917 254.232Z" fill="#FFB8B8"/>
<path d="M96.4335 271.256L87.8844 282.356C87.6412 282.672 87.3328 282.931 86.9804 283.117C86.628 283.303 86.2397 283.41 85.8421 283.432C85.4445 283.454 85.0469 283.389 84.6764 283.243C84.3058 283.097 83.971 282.873 83.6948 282.586L74.0166 272.517C72.4107 271.262 71.3675 269.419 71.1157 267.394C70.8639 265.368 71.424 263.325 72.6732 261.713C73.9225 260.101 75.7589 259.051 77.7799 258.793C79.8009 258.535 81.8415 259.091 83.4542 260.338L95.5928 267.137C95.9402 267.332 96.2417 267.6 96.4767 267.922C96.7117 268.244 96.8746 268.613 96.9544 269.004C97.0342 269.395 97.029 269.798 96.9391 270.187C96.8492 270.575 96.6768 270.94 96.4335 271.256Z" fill="#DC8A8F"/>
<path d="M63.2983 290.541L49.5262 288.049C49.1344 287.978 48.7624 287.824 48.4356 287.596C48.1088 287.368 47.8348 287.072 47.6324 286.729C47.43 286.385 47.3039 286.002 47.2626 285.605C47.2213 285.208 47.2659 284.807 47.3933 284.429L51.858 271.187C52.2312 269.18 53.3835 267.404 55.0622 266.247C56.7409 265.091 58.8089 264.648 60.8128 265.017C62.8167 265.385 64.5929 266.535 65.752 268.213C66.9111 269.892 67.3584 271.963 66.9958 273.971L66.5602 287.897C66.5476 288.295 66.4494 288.687 66.2722 289.044C66.0951 289.401 65.8431 289.716 65.5336 289.967C65.224 290.218 64.8641 290.399 64.4784 290.498C64.0927 290.597 63.6902 290.611 63.2983 290.541Z" fill="#DC8A8F"/>
<path d="M67.5149 233.148C71.402 235.813 76.5059 238.553 80.4761 235.714C81.7179 234.767 82.6201 233.442 83.0475 231.938C83.475 230.434 83.4046 228.832 82.8471 227.371C80.9461 221.925 75.7231 219.527 70.7286 217.69C64.2357 215.3 57.1659 213.4 50.4631 215.111C43.7602 216.822 37.8364 223.323 39.0464 230.146C40.0195 235.632 45.1856 240.198 44.4522 245.722C43.7141 251.281 37.4732 254.207 31.9636 255.201C26.4539 256.195 20.2884 256.514 16.3288 260.479C11.2777 265.536 12.539 274.576 17.292 279.916C22.0449 285.256 29.2174 287.676 36.1675 289.322C45.376 291.502 55.3356 292.648 64.0814 289.03C72.8272 285.411 79.633 275.672 77.0995 266.538C76.0293 262.681 73.5084 259.42 71.072 256.246C68.6357 253.072 66.1686 249.753 65.2393 245.859C64.4648 242.613 65.038 238.846 67.1862 236.411C67.5769 235.985 67.8228 235.446 67.8886 234.871C67.9543 234.296 67.8366 233.715 67.5522 233.212L67.5149 233.148Z" fill="#2F2E41"/>
<path d="M125.158 458H0.655276C0.481486 458 0.314814 457.931 0.191925 457.808C0.0690373 457.685 0 457.518 0 457.344C0 457.169 0.0690373 457.003 0.191925 456.879C0.314814 456.756 0.481486 456.687 0.655276 456.687H125.158C125.332 456.687 125.498 456.756 125.621 456.879C125.744 457.003 125.813 457.169 125.813 457.344C125.813 457.518 125.744 457.685 125.621 457.808C125.498 457.931 125.332 458 125.158 458Z" fill="#CCCCCC"/>
</g>
<defs>
<clipPath id="clip0_35_216">
<rect width="652" height="458" fill="white"/>
</clipPath>
</defs>
</svg>
