<svg width="251" height="220" viewBox="0 0 251 220" fill="none" xmlns="http://www.w3.org/2000/svg">
<path d="M125.508 172.977C126.655 172.977 127.586 172.047 127.586 170.899C127.586 169.752 126.655 168.822 125.508 168.822C124.361 168.822 123.431 169.752 123.431 170.899C123.431 172.047 124.361 172.977 125.508 172.977Z" fill="#CFCFCF"/>
<path fill-rule="evenodd" clip-rule="evenodd" d="M65.1571 15.5171C65.7424 15.5171 66.217 15.9916 66.217 16.577V25.6922C66.217 26.2776 65.7424 26.7521 65.1571 26.7521C64.5717 26.7521 64.0972 26.2776 64.0972 25.6922V16.577C64.0972 15.9916 64.5717 15.5171 65.1571 15.5171Z" fill="#BABABA"/>
<path fill-rule="evenodd" clip-rule="evenodd" d="M59.5181 21.1344C59.5181 20.549 59.9926 20.0745 60.578 20.0745H69.7144C70.2997 20.0745 70.7743 20.549 70.7743 21.1344C70.7743 21.7197 70.2997 22.1943 69.7144 22.1943H60.578C59.9926 22.1943 59.5181 21.7197 59.5181 21.1344Z" fill="#BABABA"/>
<path d="M168.922 74.0661C151.179 74.0661 133.118 73.3454 116.223 68.6394C99.6462 64.0394 84.4259 55.115 70.8591 44.7915C61.9771 38.0717 53.9006 32.7086 42.3689 33.5141C31.0873 34.1246 20.299 38.3374 11.5892 45.5335C-3.07992 58.3795 -0.875319 82.185 4.99656 98.8467C13.815 124.009 40.6518 141.54 63.461 152.881C89.8102 166.045 118.767 173.697 147.787 178.085C173.225 181.965 205.912 184.763 227.958 168.165C248.203 152.881 253.757 118.031 248.796 94.5011C247.593 87.5499 243.891 81.2779 238.388 76.8643C224.164 66.456 202.945 73.409 186.961 73.7482C181.026 73.8753 174.984 74.0237 168.922 74.0661Z" fill="#F2F2F2"/>
<path d="M140.22 4.15483C141.367 4.15483 142.297 3.22474 142.297 2.07741C142.297 0.93009 141.367 0 140.22 0C139.072 0 138.142 0.93009 138.142 2.07741C138.142 3.22474 139.072 4.15483 140.22 4.15483Z" fill="#CFCFCF"/>
<path fill-rule="evenodd" clip-rule="evenodd" d="M32.2787 164.858C32.864 164.858 33.3386 165.332 33.3386 165.918V175.033C33.3386 175.618 32.864 176.093 32.2787 176.093C31.6933 176.093 31.2188 175.618 31.2188 175.033V165.918C31.2188 165.332 31.6933 164.858 32.2787 164.858Z" fill="#BABABA"/>
<path fill-rule="evenodd" clip-rule="evenodd" d="M26.6611 170.475C26.6611 169.89 27.1357 169.416 27.721 169.416H36.8362C37.4216 169.416 37.8961 169.89 37.8961 170.475C37.8961 171.061 37.4216 171.535 36.8362 171.535H27.721C27.1357 171.535 26.6611 171.061 26.6611 170.475Z" fill="#BABABA"/>
<path d="M126.356 219.337C169.334 219.337 204.174 217.164 204.174 214.483C204.174 211.802 169.334 209.628 126.356 209.628C83.378 209.628 48.5376 211.802 48.5376 214.483C48.5376 217.164 83.378 219.337 126.356 219.337Z" fill="#F2F2F2"/>
<path d="M188.912 162.484H54.4943C53.5947 162.483 52.706 162.287 51.8897 161.909C51.0733 161.531 50.3488 160.981 49.7662 160.295C49.1836 159.61 48.7568 158.806 48.5154 157.939C48.274 157.073 48.2237 156.164 48.368 155.276L65.5597 51.0239C65.792 49.5729 66.5346 48.2526 67.6538 47.3005C68.773 46.3483 70.1953 45.827 71.6648 45.8303H206.082C206.981 45.8304 207.869 46.0263 208.685 46.4043C209.5 46.7824 210.224 47.3335 210.805 48.0194C211.386 48.7053 211.81 49.5095 212.049 50.3762C212.288 51.2428 212.335 52.151 212.187 53.0377L195.08 157.29C194.842 158.75 194.089 160.076 192.958 161.029C191.826 161.982 190.391 162.498 188.912 162.484Z" fill="#D2D2D2"/>
<path d="M190.568 43.1041L110.78 7.48042C108.429 6.43035 105.671 7.48566 104.621 9.83751L79.3332 66.4744C78.2831 68.8262 79.3385 71.584 81.6903 72.6341L161.477 108.258C163.829 109.308 166.587 108.253 167.637 105.901L192.925 49.2638C193.975 46.912 192.919 44.1542 190.568 43.1041Z" fill="white"/>
<path fill-rule="evenodd" clip-rule="evenodd" d="M110.348 8.44803C108.531 7.63661 106.4 8.45208 105.589 10.2694L80.3011 66.9063C79.4897 68.7236 80.3051 70.8546 82.1225 71.6661L161.91 107.29C163.727 108.101 165.858 107.286 166.669 105.468L191.957 48.8315C192.768 47.0141 191.953 44.8831 190.135 44.0717L110.348 8.44803ZM103.653 9.40519C104.942 6.51882 108.326 5.22367 111.213 6.51239L191 42.1361C193.886 43.4248 195.181 46.8094 193.892 49.6957L168.605 106.333C167.316 109.219 163.932 110.514 161.045 109.225L81.2583 73.6017C78.3719 72.313 77.0767 68.9284 78.3654 66.042L103.653 9.40519Z" fill="#BABABA"/>
<path fill-rule="evenodd" clip-rule="evenodd" d="M141.339 49.5088C138.185 48.1045 134.643 47.8337 131.312 48.7424C127.981 49.6511 125.067 51.6833 123.064 54.4948C122.833 54.819 122.383 54.8945 122.058 54.6634C121.734 54.4324 121.659 53.9824 121.89 53.6582C124.086 50.576 127.281 48.3479 130.933 47.3517C134.584 46.3555 138.468 46.6524 141.925 48.192C145.383 49.7316 148.202 52.4193 149.905 55.7996C151.607 59.1799 152.089 63.045 151.268 66.7397C151.181 67.1283 150.796 67.3733 150.408 67.287C150.019 67.2006 149.774 66.8156 149.861 66.427C150.61 63.0569 150.17 59.5314 148.617 56.4481C147.064 53.3647 144.493 50.9132 141.339 49.5088Z" fill="#BABABA"/>
<path d="M160.633 50.8756C161.839 50.8756 162.817 49.8981 162.817 48.6922C162.817 47.4863 161.839 46.5088 160.633 46.5088C159.427 46.5088 158.45 47.4863 158.45 48.6922C158.45 49.8981 159.427 50.8756 160.633 50.8756Z" fill="#BABABA"/>
<path d="M129.006 36.7577C130.212 36.7577 131.189 35.7801 131.189 34.5743C131.189 33.3684 130.212 32.3909 129.006 32.3909C127.8 32.3909 126.822 33.3684 126.822 34.5743C126.822 35.7801 127.8 36.7577 129.006 36.7577Z" fill="#BABABA"/>
<path d="M188.318 162.441H53.2434C51.5998 162.436 50.0254 161.779 48.8652 160.615C47.705 159.451 47.0535 157.874 47.0535 156.23V60.9871C47.0338 60.1609 47.1791 59.339 47.4811 58.5696C47.783 57.8002 48.2355 57.0988 48.812 56.5066C49.3885 55.9143 50.0774 55.443 50.8383 55.1204C51.5992 54.7978 52.4169 54.6303 53.2434 54.6277H102.444C103.586 54.6319 104.704 54.9507 105.677 55.549C106.649 56.1473 107.438 57.0021 107.956 58.0194L114.972 71.7558C115.489 72.7746 116.277 73.6307 117.25 74.2293C118.222 74.8279 119.342 75.1457 120.484 75.1475H188.318C189.959 75.1475 191.534 75.7996 192.695 76.9604C193.856 78.1213 194.508 79.6957 194.508 81.3373V156.23C194.508 157.874 193.856 159.451 192.696 160.615C191.536 161.779 189.961 162.436 188.318 162.441Z" fill="white"/>
<path fill-rule="evenodd" clip-rule="evenodd" d="M53.2404 53.5676L53.2437 53.5676L102.448 53.5676C103.785 53.5725 105.094 53.9457 106.232 54.6462C107.371 55.3466 108.294 56.3473 108.901 57.5381L115.918 71.2765C116.346 72.1208 116.999 72.8303 117.805 73.3264C118.611 73.8223 119.538 74.0857 120.485 74.0874C120.484 74.0874 120.485 74.0874 120.485 74.0874H188.318C190.241 74.0874 192.085 74.8512 193.445 76.2108C194.804 77.5704 195.568 79.4144 195.568 81.3372V156.23C195.568 158.154 194.805 160 193.447 161.363C192.089 162.726 190.246 163.495 188.322 163.501L188.318 163.501H53.2437L53.2401 163.501C51.316 163.495 49.473 162.726 48.1148 161.363C46.7566 160 45.9939 158.154 45.994 156.23V60.9991C45.9727 60.0363 46.1429 59.0788 46.4948 58.1822C46.8483 57.2815 47.378 56.4605 48.0528 55.7672C48.7277 55.0738 49.5341 54.5221 50.4249 54.1445C51.3157 53.7668 52.2729 53.5707 53.2404 53.5676ZM102.443 55.6874H53.2455C52.5605 55.6898 51.883 55.8287 51.2524 56.0961C50.6213 56.3637 50.05 56.7545 49.5719 57.2457C49.0938 57.7369 48.7185 58.3186 48.4681 58.9567C48.2176 59.5947 48.0971 60.2764 48.1135 60.9616L48.1141 60.987L48.1138 156.23C48.1138 157.593 48.6541 158.901 49.6163 159.866C50.578 160.831 51.8828 161.376 53.2451 161.381C53.2459 161.381 53.2466 161.381 53.2473 161.381H188.315C188.315 161.381 188.316 161.381 188.317 161.381C189.679 161.376 190.984 160.831 191.946 159.866C192.908 158.901 193.448 157.593 193.448 156.23V81.3372C193.448 79.9766 192.908 78.6718 191.946 77.7098C190.984 76.7477 189.679 76.2072 188.318 76.2072H120.484C119.146 76.2051 117.834 75.8329 116.694 75.1318C115.555 74.4309 114.633 73.4288 114.028 72.2361C114.028 72.2357 114.028 72.2366 114.028 72.2361L107.012 58.5014C106.582 57.6577 105.928 56.9478 105.121 56.4515C104.316 55.9556 103.389 55.6913 102.443 55.6874Z" fill="#BABABA"/>
<path d="M167.523 78.3906C159.719 78.3864 152.09 80.6966 145.6 85.0288C139.11 89.361 134.05 95.5208 131.061 102.729C128.072 109.937 127.287 117.87 128.807 125.524C130.327 133.177 134.083 140.209 139.599 145.728C145.115 151.247 152.144 155.007 159.797 156.53C167.451 158.054 175.384 157.274 182.593 154.289C189.803 151.304 195.966 146.248 200.301 139.76C204.637 133.272 206.951 125.644 206.951 117.84C206.951 107.381 202.798 97.3503 195.404 89.9527C188.01 82.555 177.982 78.3963 167.523 78.3906Z" fill="white"/>
<path fill-rule="evenodd" clip-rule="evenodd" d="M145.011 84.1473C151.676 79.6987 159.51 77.3265 167.523 77.3308C178.263 77.3366 188.561 81.6071 196.154 89.2035C203.746 96.7999 208.011 107.1 208.011 117.84C208.011 125.853 205.635 133.686 201.182 140.349C196.73 147.011 190.402 152.203 182.999 155.269C175.595 158.334 167.449 159.135 159.59 157.57C151.732 156.005 144.514 152.145 138.849 146.477C133.185 140.81 129.328 133.59 127.767 125.73C126.207 117.871 127.012 109.725 130.082 102.323C133.151 94.9212 138.347 88.596 145.011 84.1473ZM167.522 79.4506C159.928 79.4465 152.504 81.6946 146.188 85.9105C139.872 90.1263 134.949 96.1205 132.04 103.135C129.131 110.149 128.368 117.869 129.847 125.317C131.326 132.766 134.98 139.608 140.348 144.979C145.716 150.35 152.557 154.008 160.004 155.491C167.452 156.974 175.172 156.215 182.188 153.31C189.204 150.405 195.201 145.484 199.42 139.171C203.639 132.857 205.891 125.434 205.891 117.84C205.891 107.662 201.849 97.9009 194.654 90.702C187.459 83.5031 177.7 79.4561 167.522 79.4506Z" fill="#BABABA"/>
<path fill-rule="evenodd" clip-rule="evenodd" d="M194.839 145.708C195.253 145.294 195.924 145.294 196.338 145.708L206.852 156.223C207.266 156.637 207.266 157.308 206.852 157.722C206.439 158.136 205.767 158.136 205.354 157.722L194.839 147.207C194.425 146.793 194.425 146.122 194.839 145.708Z" fill="#BABABA"/>
<path d="M204.915 151.864L201.648 155.281C200.184 156.812 200.239 159.241 201.771 160.705L230.118 187.804C231.65 189.269 234.079 189.214 235.543 187.682L238.809 184.265C240.274 182.734 240.219 180.305 238.687 178.841L210.34 151.742C208.808 150.277 206.379 150.332 204.915 151.864Z" fill="#D2D2D2"/>
<path fill-rule="evenodd" clip-rule="evenodd" d="M225.902 1.01758C226.488 1.01758 226.962 1.49211 226.962 2.07748V11.2139C226.962 11.7992 226.488 12.2738 225.902 12.2738C225.317 12.2738 224.842 11.7992 224.842 11.2139V2.07748C224.842 1.49211 225.317 1.01758 225.902 1.01758Z" fill="#BABABA"/>
<path fill-rule="evenodd" clip-rule="evenodd" d="M220.264 6.65634C220.264 6.07097 220.738 5.59644 221.324 5.59644H230.46C231.045 5.59644 231.52 6.07097 231.52 6.65634C231.52 7.24171 231.045 7.71625 230.46 7.71625H221.324C220.738 7.71625 220.264 7.24171 220.264 6.65634Z" fill="#BABABA"/>
</svg>
