<svg width="283" height="189" viewBox="0 0 283 189" fill="none" xmlns="http://www.w3.org/2000/svg">
<g clip-path="url(#clip0_25_726)">
<path d="M208.345 0.11792H0.153938V133.348H208.345V0.11792Z" fill="#E6E6E6"/>
<path d="M202.391 16.8282H6.10706V67.6165H202.391V16.8282Z" fill="white"/>
<path d="M96.4407 24.1643H54.931V26.5452H96.4407V24.1643Z" fill="#E6E6E6"/>
<path d="M119.031 32.8494H54.931V35.2303H119.031V32.8494Z" fill="#B3000B"/>
<path d="M107.171 41.0319H54.931V43.4129H107.171V41.0319Z" fill="#E6E6E6"/>
<path d="M85.4279 49.1835H54.931V51.5645H85.4279V49.1835Z" fill="#E6E6E6"/>
<path d="M100.959 57.3351H54.931V59.7161H100.959V57.3351Z" fill="#E6E6E6"/>
<path d="M41.0944 23.3179H36.0115V28.3967H41.0944V23.3179Z" fill="#E6E6E6"/>
<path d="M41.0944 31.5004H36.0115V36.5792H41.0944V31.5004Z" fill="#B3000B"/>
<path d="M41.0944 39.683H36.0115V44.7618H41.0944V39.683Z" fill="#E6E6E6"/>
<path d="M41.0944 47.8655H36.0115V52.9444H41.0944V47.8655Z" fill="#E6E6E6"/>
<path d="M41.0944 56.048H36.0115V61.1269H41.0944V56.048Z" fill="#E6E6E6"/>
<path d="M174.942 34.8863H157.999V51.8157H174.942V34.8863Z" fill="#E6E6E6"/>
<path d="M202.391 74.6704H6.10706V125.459H202.391V74.6704Z" fill="white"/>
<path d="M49.8481 79.1842H44.7653V84.263H49.8481V79.1842Z" fill="#E6E6E6"/>
<path d="M41.0944 79.1842H36.0115V84.263H41.0944V79.1842Z" fill="#B3000B"/>
<path d="M122.192 90.2906C120.642 87.6699 118.493 85.454 115.92 83.8251C113.346 82.1963 110.423 81.2009 107.39 80.921C104.357 80.641 101.3 81.0844 98.4719 82.2146C95.6436 83.3449 93.1242 85.1298 91.1208 87.4226L89.8821 86.341C92.0563 83.8519 94.7908 81.914 97.8608 80.6868C100.931 79.4596 104.248 78.9781 107.541 79.2819C110.833 79.5858 114.007 80.6663 116.8 82.4346C119.593 84.2028 121.926 86.6084 123.607 89.4534L122.192 90.2906Z" fill="#E6E6E6"/>
<path d="M122.967 111.703L121.602 110.785C123.624 107.772 124.752 104.249 124.856 100.623C124.96 96.9968 124.037 93.4149 122.192 90.2906L123.607 89.4534C125.611 92.845 126.614 96.7336 126.5 100.67C126.387 104.607 125.162 108.432 122.967 111.703Z" fill="#B3000B"/>
<path d="M90.0535 113.993C86.6533 110.198 84.759 105.292 84.7274 100.199C84.6959 95.1061 86.5292 90.1773 89.8821 86.3411L91.1208 87.4226C88.0321 90.9567 86.3433 95.4973 86.3724 100.189C86.4015 104.881 88.1465 109.4 91.2787 112.896L90.0535 113.993Z" fill="#B3000B"/>
<path d="M105.618 120.945C102.681 120.943 99.7766 120.322 97.0949 119.125C94.4133 117.927 92.0141 116.178 90.0535 113.992L91.2787 112.896C93.2345 115.079 95.6638 116.787 98.381 117.889C101.098 118.991 104.032 119.458 106.957 119.255C109.882 119.051 112.723 118.182 115.261 116.714C117.799 115.247 119.968 113.219 121.602 110.785L122.967 111.703C121.057 114.548 118.475 116.88 115.449 118.492C112.424 120.104 109.047 120.946 105.618 120.945Z" fill="#B3000B"/>
<path d="M174.942 90.1891H157.999V107.118H174.942V90.1891Z" fill="#E6E6E6"/>
<path d="M52.2483 101.193H35.3056V118.123H52.2483V101.193Z" fill="#E6E6E6"/>
<path d="M208.256 0H0.0650024V8.83774H208.256V0Z" fill="#B3000B"/>
<path d="M6.63767 6.15633C7.54303 6.15633 8.27697 5.42296 8.27697 4.51832C8.27697 3.61367 7.54303 2.88031 6.63767 2.88031C5.73231 2.88031 4.99838 3.61367 4.99838 4.51832C4.99838 5.42296 5.73231 6.15633 6.63767 6.15633Z" fill="white"/>
<path d="M12.86 6.15633C13.7654 6.15633 14.4993 5.42296 14.4993 4.51832C14.4993 3.61367 13.7654 2.88031 12.86 2.88031C11.9547 2.88031 11.2207 3.61367 11.2207 4.51832C11.2207 5.42296 11.9547 6.15633 12.86 6.15633Z" fill="white"/>
<path d="M19.0824 6.15633C19.9878 6.15633 20.7217 5.42296 20.7217 4.51832C20.7217 3.61367 19.9878 2.88031 19.0824 2.88031C18.177 2.88031 17.4431 3.61367 17.4431 4.51832C17.4431 5.42296 18.177 6.15633 19.0824 6.15633Z" fill="white"/>
<path d="M241.868 184.411H246.083L248.088 168.167L241.867 168.167L241.868 184.411Z" fill="#FFB8B8"/>
<path d="M240.793 183.036L249.093 183.036H249.094C250.496 183.036 251.842 183.593 252.834 184.584C253.826 185.575 254.383 186.92 254.383 188.321V188.493L240.793 188.494L240.793 183.036Z" fill="#2F2E41"/>
<path d="M231.371 168.463L234.481 171.305L246.933 160.671L242.342 156.476L231.371 168.463Z" fill="#FFB8B8"/>
<path d="M231.507 166.724L237.632 172.321L237.632 172.321C238.667 173.267 239.284 174.585 239.346 175.986C239.409 177.386 238.912 178.754 237.965 179.788L237.849 179.915L227.821 170.751L231.507 166.724Z" fill="#2F2E41"/>
<path d="M248.492 127.367L247.298 151.239L250.284 177.2L241.325 178.394L235.651 145.569L233.859 123.189L248.492 127.367Z" fill="#2F2E41"/>
<path d="M262.529 118.713C262.529 118.713 266.112 142.287 258.646 150.045C251.18 157.804 241.027 171.53 241.027 171.53L233.859 162.578L252.076 143.182L248.493 130.052L233.859 123.189L236.248 106.777L257.75 106.478L262.529 118.713Z" fill="#2F2E41"/>
<path d="M246.084 64.105C250.123 64.105 253.398 60.833 253.398 56.7968C253.398 52.7605 250.123 49.4885 246.084 49.4885C242.045 49.4885 238.77 52.7605 238.77 56.7968C238.77 60.833 242.045 64.105 246.084 64.105Z" fill="#FFB8B8"/>
<path d="M252.15 67.1835L253.271 68.8795L256.257 77.2349L253.868 109.761L239.832 110.059L238.04 72.7587L241.794 68.0705L252.15 67.1835Z" fill="#CCCCCC"/>
<path d="M232.366 73.6539L229.977 73.3555C229.977 73.3555 229.38 73.6539 229.081 75.7428C228.782 77.8316 225.199 96.3326 225.199 96.3326L229.977 119.011L235.352 111.85L232.067 99.3167L235.352 86.7837L232.366 73.6539Z" fill="#2F2E41"/>
<path d="M262.827 73.3557H264.619L269.099 97.5261L264.918 116.326L260.737 109.462L261.931 102.002L261.334 95.4375L259.244 91.558L262.827 73.3557Z" fill="#2F2E41"/>
<path d="M250.406 56.7967L249.076 56.4645C249.076 56.4645 248.079 50.8173 245.752 51.4817C243.424 52.146 237.44 52.8104 237.44 50.1529C237.44 47.4953 243.092 45.17 246.416 45.5022C249.741 45.8344 253.987 46.9364 255.06 51.8138C256.781 59.6326 251.51 61.6075 251.51 61.6075L251.598 61.3228C251.842 60.5323 251.859 59.6896 251.648 58.8898C251.438 58.09 251.007 57.365 250.406 56.7967Z" fill="#2F2E41"/>
<path d="M230.276 73.3555L239.832 69.4763L242.072 67.835L248.791 97.5262L253.271 84.0981L251.927 66.9398L264.32 73.3555L260.14 93.647L259.542 101.405L261.334 107.672C261.334 107.672 267.605 112.148 265.515 116.923C263.425 121.697 261.035 121.995 261.035 121.995C261.035 121.995 250.882 112.446 250.284 110.059C249.687 107.672 248.791 103.494 248.791 103.494C248.791 103.494 243.714 122.592 237.742 122.294C231.769 121.995 231.769 115.729 231.769 115.729L233.262 109.164L235.651 102.301L234.457 90.9613L230.276 73.3555Z" fill="#2F2E41"/>
<path d="M282.639 189H203.337C203.258 189 203.183 188.969 203.128 188.913C203.072 188.858 203.041 188.783 203.041 188.704C203.041 188.626 203.072 188.551 203.128 188.495C203.183 188.44 203.258 188.409 203.337 188.409H282.639C282.718 188.409 282.793 188.44 282.848 188.495C282.904 188.551 282.935 188.626 282.935 188.704C282.935 188.783 282.904 188.858 282.848 188.913C282.793 188.969 282.718 189 282.639 189Z" fill="#CCCCCC"/>
</g>
<defs>
<clipPath id="clip0_25_726">
<rect width="282.87" height="189" fill="white" transform="translate(0.0650024)"/>
</clipPath>
</defs>
</svg>
