<svg width="245" height="189" viewBox="0 0 245 189" fill="none" xmlns="http://www.w3.org/2000/svg">
<g clip-path="url(#clip0_25_566)">
<path d="M212.673 111.769C212.673 110.075 212.105 108.7 211.407 108.697H21.2205C20.5197 108.7 19.9546 110.075 19.9515 111.769V181.51C19.9517 181.667 19.8933 181.819 19.7877 181.936C19.6821 182.052 19.5369 182.125 19.3804 182.14C18.8701 182.189 18.3597 182.235 17.8491 182.277C17.8365 182.277 17.8239 182.28 17.8112 182.28C17.5335 182.305 17.2557 182.324 16.9779 182.347H16.9747C16.8318 182.082 16.6906 181.815 16.5511 181.546C16.5039 181.455 16.4792 181.355 16.4791 181.252V107.784C16.4791 107.316 16.4981 106.845 16.5296 106.38C16.5747 105.742 16.6537 105.107 16.7664 104.477C17.2999 101.541 18.5057 99.553 19.8757 99.5466H212.749C212.949 99.548 213.147 99.5899 213.33 99.6699C213.599 99.7892 213.843 99.9599 214.046 100.172C214.323 100.461 214.56 100.785 214.75 101.137C215.426 102.328 215.909 104.104 216.079 106.172C216.079 106.191 216.083 106.21 216.083 106.229C216.127 106.741 216.149 107.262 216.146 107.784L216.19 114.557L216.218 118.597L216.304 131.271L216.335 135.772L216.474 181.983C216.474 182.151 216.407 182.311 216.289 182.43C216.171 182.549 216.01 182.615 215.843 182.615H213.305C213.137 182.615 212.977 182.549 212.858 182.43C212.74 182.311 212.673 182.151 212.673 181.983V111.769Z" fill="#E6E6E6"/>
<path d="M160.993 67.8516H140.5C140.211 67.852 139.933 67.9677 139.728 68.1732C139.523 68.3786 139.408 68.6571 139.409 68.9474V101.363H162.088V68.9471C162.088 68.8031 162.06 68.6606 162.005 68.5276C161.95 68.3946 161.869 68.2738 161.768 68.172C161.666 68.0702 161.545 67.9895 161.412 67.9345C161.279 67.8795 161.137 67.8515 160.993 67.8516ZM150.816 86.2682C150.175 86.2654 149.561 86.0092 149.108 85.5554C148.654 85.1016 148.398 84.4869 148.396 83.8451V80.1078C148.396 79.4652 148.651 78.8489 149.104 78.3945C149.558 77.94 150.174 77.6848 150.816 77.6848C151.457 77.6848 152.073 77.94 152.527 78.3945C152.981 78.8489 153.236 79.4652 153.236 80.1078V83.8467C153.232 84.4882 152.976 85.1025 152.523 85.5559C152.07 86.0094 151.456 86.2654 150.816 86.2682Z" fill="#2F2E41"/>
<path d="M139.338 100.326V103.453C139.339 103.615 139.403 103.77 139.517 103.885C139.632 104 139.787 104.064 139.949 104.064H161.548C161.71 104.064 161.865 103.999 161.979 103.884C162.093 103.77 162.158 103.615 162.159 103.453V100.326H139.338Z" fill="#3F3D56"/>
<path d="M194.928 17.2645H107.33C106.577 17.2656 105.856 17.5655 105.324 18.0984C104.792 18.6313 104.492 19.3537 104.491 20.1073V79.2967C104.491 80.0505 104.791 80.7733 105.323 81.3064C105.855 81.8394 106.577 82.139 107.33 82.1395H194.928C195.681 82.139 196.403 81.8394 196.935 81.3064C197.467 80.7733 197.767 80.0505 197.767 79.2967V20.1073C197.766 19.3537 197.466 18.6313 196.934 18.0984C196.402 17.5655 195.681 17.2656 194.928 17.2645Z" fill="#3F3D56"/>
<path d="M194.197 19.3177H108.06C107.657 19.3187 107.271 19.4796 106.986 19.7652C106.702 20.0508 106.542 20.4377 106.542 20.8412V78.5635C106.543 78.9665 106.703 79.3528 106.987 79.6378C107.272 79.9227 107.658 80.0831 108.06 80.0838H194.197C194.599 80.0831 194.985 79.9227 195.27 79.6378C195.554 79.3528 195.714 78.9665 195.715 78.5635V20.84C195.715 20.4365 195.555 20.0494 195.27 19.7638C194.986 19.4782 194.6 19.3173 194.197 19.3165V19.3177Z" fill="white"/>
<path d="M177.419 105.153H126.172C126.032 105.153 125.894 105.122 125.767 105.061C125.64 105.001 125.529 104.913 125.44 104.804C125.352 104.695 125.289 104.567 125.256 104.431C125.223 104.295 125.221 104.152 125.25 104.015L126.045 100.233C126.09 100.022 126.207 99.8322 126.374 99.6959C126.542 99.5596 126.751 99.4848 126.967 99.484H176.624C176.84 99.4848 177.049 99.5596 177.217 99.6959C177.385 99.8322 177.501 100.022 177.546 100.233L178.341 104.015C178.37 104.152 178.368 104.295 178.335 104.431C178.302 104.567 178.239 104.695 178.151 104.804C178.062 104.913 177.951 105.001 177.824 105.061C177.698 105.122 177.559 105.153 177.419 105.153Z" fill="#2F2E41"/>
<path d="M128.756 100.165H127.485C127.4 100.165 127.331 100.234 127.331 100.319V100.959C127.331 101.044 127.4 101.113 127.485 101.113H128.756C128.841 101.113 128.91 101.044 128.91 100.959V100.319C128.91 100.234 128.841 100.165 128.756 100.165Z" fill="#3F3D56"/>
<path d="M131.912 100.165H130.642C130.557 100.165 130.488 100.234 130.488 100.319V100.959C130.488 101.044 130.557 101.113 130.642 101.113H131.912C131.998 101.113 132.066 101.044 132.066 100.959V100.319C132.066 100.234 131.998 100.165 131.912 100.165Z" fill="#3F3D56"/>
<path d="M135.069 100.165H133.799C133.714 100.165 133.645 100.234 133.645 100.319V100.959C133.645 101.044 133.714 101.113 133.799 101.113H135.069C135.154 101.113 135.223 101.044 135.223 100.959V100.319C135.223 100.234 135.154 100.165 135.069 100.165Z" fill="#3F3D56"/>
<path d="M138.226 100.165H136.956C136.87 100.165 136.801 100.234 136.801 100.319V100.959C136.801 101.044 136.87 101.113 136.956 101.113H138.226C138.311 101.113 138.38 101.044 138.38 100.959V100.319C138.38 100.234 138.311 100.165 138.226 100.165Z" fill="#3F3D56"/>
<path d="M141.382 100.165H140.112C140.027 100.165 139.958 100.234 139.958 100.319V100.959C139.958 101.044 140.027 101.113 140.112 101.113H141.382C141.468 101.113 141.537 101.044 141.537 100.959V100.319C141.537 100.234 141.468 100.165 141.382 100.165Z" fill="#3F3D56"/>
<path d="M144.539 100.165H143.269C143.184 100.165 143.115 100.234 143.115 100.319V100.959C143.115 101.044 143.184 101.113 143.269 101.113H144.539C144.624 101.113 144.693 101.044 144.693 100.959V100.319C144.693 100.234 144.624 100.165 144.539 100.165Z" fill="#3F3D56"/>
<path d="M147.696 100.165H146.426C146.341 100.165 146.272 100.234 146.272 100.319V100.959C146.272 101.044 146.341 101.113 146.426 101.113H147.696C147.781 101.113 147.85 101.044 147.85 100.959V100.319C147.85 100.234 147.781 100.165 147.696 100.165Z" fill="#3F3D56"/>
<path d="M150.853 100.165H149.582C149.497 100.165 149.428 100.234 149.428 100.319V100.959C149.428 101.044 149.497 101.113 149.582 101.113H150.853C150.938 101.113 151.007 101.044 151.007 100.959V100.319C151.007 100.234 150.938 100.165 150.853 100.165Z" fill="#3F3D56"/>
<path d="M154.009 100.165H152.739C152.654 100.165 152.585 100.234 152.585 100.319V100.959C152.585 101.044 152.654 101.113 152.739 101.113H154.009C154.094 101.113 154.163 101.044 154.163 100.959V100.319C154.163 100.234 154.094 100.165 154.009 100.165Z" fill="#3F3D56"/>
<path d="M157.166 100.165H155.896C155.811 100.165 155.742 100.234 155.742 100.319V100.959C155.742 101.044 155.811 101.113 155.896 101.113H157.166C157.251 101.113 157.32 101.044 157.32 100.959V100.319C157.32 100.234 157.251 100.165 157.166 100.165Z" fill="#3F3D56"/>
<path d="M160.323 100.165H159.052C158.967 100.165 158.898 100.234 158.898 100.319V100.959C158.898 101.044 158.967 101.113 159.052 101.113H160.323C160.408 101.113 160.477 101.044 160.477 100.959V100.319C160.477 100.234 160.408 100.165 160.323 100.165Z" fill="#3F3D56"/>
<path d="M163.479 100.165H162.209C162.124 100.165 162.055 100.234 162.055 100.319V100.959C162.055 101.044 162.124 101.113 162.209 101.113H163.479C163.564 101.113 163.633 101.044 163.633 100.959V100.319C163.633 100.234 163.564 100.165 163.479 100.165Z" fill="#3F3D56"/>
<path d="M166.636 100.165H165.366C165.281 100.165 165.212 100.234 165.212 100.319V100.959C165.212 101.044 165.281 101.113 165.366 101.113H166.636C166.721 101.113 166.79 101.044 166.79 100.959V100.319C166.79 100.234 166.721 100.165 166.636 100.165Z" fill="#3F3D56"/>
<path d="M169.793 100.165H168.522C168.437 100.165 168.368 100.234 168.368 100.319V100.959C168.368 101.044 168.437 101.113 168.522 101.113H169.793C169.878 101.113 169.947 101.044 169.947 100.959V100.319C169.947 100.234 169.878 100.165 169.793 100.165Z" fill="#3F3D56"/>
<path d="M172.949 100.165H171.679C171.594 100.165 171.525 100.234 171.525 100.319V100.959C171.525 101.044 171.594 101.113 171.679 101.113H172.949C173.034 101.113 173.103 101.044 173.103 100.959V100.319C173.103 100.234 173.034 100.165 172.949 100.165Z" fill="#3F3D56"/>
<path d="M176.106 100.165H174.836C174.751 100.165 174.682 100.234 174.682 100.319V100.959C174.682 101.044 174.751 101.113 174.836 101.113H176.106C176.191 101.113 176.26 101.044 176.26 100.959V100.319C176.26 100.234 176.191 100.165 176.106 100.165Z" fill="#3F3D56"/>
<path d="M128.718 101.745H127.448C127.363 101.745 127.294 101.814 127.294 101.899V102.539C127.294 102.624 127.363 102.693 127.448 102.693H128.718C128.804 102.693 128.873 102.624 128.873 102.539V101.899C128.873 101.814 128.804 101.745 128.718 101.745Z" fill="#3F3D56"/>
<path d="M131.875 101.745H130.605C130.52 101.745 130.451 101.814 130.451 101.899V102.539C130.451 102.624 130.52 102.693 130.605 102.693H131.875C131.96 102.693 132.029 102.624 132.029 102.539V101.899C132.029 101.814 131.96 101.745 131.875 101.745Z" fill="#3F3D56"/>
<path d="M135.032 101.745H133.762C133.677 101.745 133.608 101.814 133.608 101.899V102.539C133.608 102.624 133.677 102.693 133.762 102.693H135.032C135.117 102.693 135.186 102.624 135.186 102.539V101.899C135.186 101.814 135.117 101.745 135.032 101.745Z" fill="#3F3D56"/>
<path d="M138.189 101.745H136.918C136.833 101.745 136.764 101.814 136.764 101.899V102.539C136.764 102.624 136.833 102.693 136.918 102.693H138.189C138.274 102.693 138.343 102.624 138.343 102.539V101.899C138.343 101.814 138.274 101.745 138.189 101.745Z" fill="#3F3D56"/>
<path d="M141.345 101.745H140.075C139.99 101.745 139.921 101.814 139.921 101.899V102.539C139.921 102.624 139.99 102.693 140.075 102.693H141.345C141.43 102.693 141.499 102.624 141.499 102.539V101.899C141.499 101.814 141.43 101.745 141.345 101.745Z" fill="#3F3D56"/>
<path d="M144.502 101.745H143.232C143.147 101.745 143.078 101.814 143.078 101.899V102.539C143.078 102.624 143.147 102.693 143.232 102.693H144.502C144.587 102.693 144.656 102.624 144.656 102.539V101.899C144.656 101.814 144.587 101.745 144.502 101.745Z" fill="#3F3D56"/>
<path d="M147.659 101.745H146.388C146.303 101.745 146.234 101.814 146.234 101.899V102.539C146.234 102.624 146.303 102.693 146.388 102.693H147.659C147.744 102.693 147.813 102.624 147.813 102.539V101.899C147.813 101.814 147.744 101.745 147.659 101.745Z" fill="#3F3D56"/>
<path d="M150.815 101.745H149.545C149.46 101.745 149.391 101.814 149.391 101.899V102.539C149.391 102.624 149.46 102.693 149.545 102.693H150.815C150.9 102.693 150.969 102.624 150.969 102.539V101.899C150.969 101.814 150.9 101.745 150.815 101.745Z" fill="#3F3D56"/>
<path d="M153.972 101.745H152.702C152.617 101.745 152.548 101.814 152.548 101.899V102.539C152.548 102.624 152.617 102.693 152.702 102.693H153.972C154.057 102.693 154.126 102.624 154.126 102.539V101.899C154.126 101.814 154.057 101.745 153.972 101.745Z" fill="#3F3D56"/>
<path d="M157.129 101.745H155.858C155.773 101.745 155.704 101.814 155.704 101.899V102.539C155.704 102.624 155.773 102.693 155.858 102.693H157.129C157.214 102.693 157.283 102.624 157.283 102.539V101.899C157.283 101.814 157.214 101.745 157.129 101.745Z" fill="#3F3D56"/>
<path d="M160.285 101.745H159.015C158.93 101.745 158.861 101.814 158.861 101.899V102.539C158.861 102.624 158.93 102.693 159.015 102.693H160.285C160.37 102.693 160.439 102.624 160.439 102.539V101.899C160.439 101.814 160.37 101.745 160.285 101.745Z" fill="#3F3D56"/>
<path d="M163.442 101.745H162.172C162.087 101.745 162.018 101.814 162.018 101.899V102.539C162.018 102.624 162.087 102.693 162.172 102.693H163.442C163.527 102.693 163.596 102.624 163.596 102.539V101.899C163.596 101.814 163.527 101.745 163.442 101.745Z" fill="#3F3D56"/>
<path d="M166.599 101.745H165.328C165.243 101.745 165.174 101.814 165.174 101.899V102.539C165.174 102.624 165.243 102.693 165.328 102.693H166.599C166.684 102.693 166.753 102.624 166.753 102.539V101.899C166.753 101.814 166.684 101.745 166.599 101.745Z" fill="#3F3D56"/>
<path d="M169.755 101.745H168.485C168.4 101.745 168.331 101.814 168.331 101.899V102.539C168.331 102.624 168.4 102.693 168.485 102.693H169.755C169.84 102.693 169.909 102.624 169.909 102.539V101.899C169.909 101.814 169.84 101.745 169.755 101.745Z" fill="#3F3D56"/>
<path d="M172.912 101.745H171.642C171.557 101.745 171.488 101.814 171.488 101.899V102.539C171.488 102.624 171.557 102.693 171.642 102.693H172.912C172.997 102.693 173.066 102.624 173.066 102.539V101.899C173.066 101.814 172.997 101.745 172.912 101.745Z" fill="#3F3D56"/>
<path d="M176.069 101.745H174.799C174.713 101.745 174.644 101.814 174.644 101.899V102.539C174.644 102.624 174.713 102.693 174.799 102.693H176.069C176.154 102.693 176.223 102.624 176.223 102.539V101.899C176.223 101.814 176.154 101.745 176.069 101.745Z" fill="#3F3D56"/>
<path d="M154.919 103.641H142.6C142.515 103.641 142.446 103.711 142.446 103.796V104.435C142.446 104.521 142.515 104.59 142.6 104.59H154.919C155.004 104.59 155.073 104.521 155.073 104.435V103.796C155.073 103.711 155.004 103.641 154.919 103.641Z" fill="#3F3D56"/>
<path d="M188.265 177.293L185.831 173.377L185.345 175.615C185.259 176.007 185.174 176.405 185.095 176.8C184.404 176.209 183.668 175.662 182.949 175.137C180.739 173.532 178.53 171.924 176.323 170.314L177.014 174.328C177.44 176.8 177.885 179.322 178.94 181.582C179.057 181.838 179.183 182.091 179.319 182.338H189.59C189.673 182.109 189.73 181.871 189.761 181.63C189.763 181.614 189.765 181.598 189.764 181.582C189.925 180.049 189.079 178.605 188.265 177.293Z" fill="#F0F0F0"/>
<path d="M60.1032 177.293L57.6694 173.377L57.1833 175.615C57.0981 176.007 57.0128 176.405 56.9339 176.8C56.2426 176.209 55.5071 175.662 54.7874 175.137C52.5777 173.532 50.3691 171.924 48.1615 170.314L48.8528 174.328C49.279 176.8 49.7241 179.322 50.7784 181.582C50.8952 181.838 51.0215 182.091 51.1572 182.338H61.429C61.5117 182.109 61.5688 181.871 61.5995 181.63C61.6021 181.614 61.6031 181.598 61.6027 181.582C61.7637 180.049 60.9177 178.605 60.1032 177.293Z" fill="#F0F0F0"/>
<path d="M244.624 182.767L157.579 182.864C157.481 182.861 157.388 182.82 157.32 182.75C157.252 182.68 157.214 182.586 157.214 182.488C157.214 182.39 157.252 182.296 157.32 182.225C157.388 182.155 157.481 182.114 157.579 182.111L244.624 182.014C244.722 182.017 244.815 182.058 244.883 182.128C244.951 182.199 244.989 182.293 244.989 182.391C244.989 182.489 244.951 182.583 244.883 182.653C244.815 182.723 244.722 182.764 244.624 182.767Z" fill="#CACACA"/>
<path d="M189.867 27.2706H109.269C109.186 27.2679 109.107 27.233 109.049 27.1731C108.991 27.1132 108.959 27.033 108.959 26.9496C108.959 26.8662 108.991 26.786 109.049 26.7261C109.107 26.6662 109.186 26.6312 109.269 26.6286H189.867C189.95 26.6312 190.029 26.6662 190.087 26.7261C190.145 26.786 190.178 26.8662 190.178 26.9496C190.178 27.033 190.145 27.1132 190.087 27.1731C190.029 27.233 189.95 27.2679 189.867 27.2706Z" fill="#CACACA"/>
<path d="M114.756 24.9904C115.793 24.9904 116.634 24.1295 116.634 23.0677C116.634 22.0058 115.793 21.145 114.756 21.145C113.719 21.145 112.878 22.0058 112.878 23.0677C112.878 24.1295 113.719 24.9904 114.756 24.9904Z" fill="#3F3D56"/>
<path d="M121.244 24.9904C122.282 24.9904 123.123 24.1295 123.123 23.0677C123.123 22.0058 122.282 21.145 121.244 21.145C120.207 21.145 119.366 22.0058 119.366 23.0677C119.366 24.1295 120.207 24.9904 121.244 24.9904Z" fill="#3F3D56"/>
<path d="M127.733 24.9904C128.771 24.9904 129.611 24.1295 129.611 23.0677C129.611 22.0058 128.771 21.145 127.733 21.145C126.696 21.145 125.855 22.0058 125.855 23.0677C125.855 24.1295 126.696 24.9904 127.733 24.9904Z" fill="#3F3D56"/>
<path d="M185.96 21.6213H181.351C181.304 21.6199 181.258 21.6279 181.214 21.6448C181.171 21.6618 181.131 21.6873 181.098 21.7199C181.064 21.7524 181.037 21.7914 181.019 21.8345C181.001 21.8776 180.992 21.9239 180.992 21.9707C180.992 22.0175 181.001 22.0638 181.019 22.1069C181.037 22.15 181.064 22.189 181.098 22.2216C181.131 22.2542 181.171 22.2797 181.214 22.2966C181.258 22.3136 181.304 22.3216 181.351 22.3202H185.96C186.007 22.3216 186.053 22.3136 186.097 22.2966C186.14 22.2797 186.18 22.2542 186.214 22.2216C186.247 22.189 186.274 22.15 186.292 22.1069C186.31 22.0638 186.32 22.0175 186.32 21.9707C186.32 21.9239 186.31 21.8776 186.292 21.8345C186.274 21.7914 186.247 21.7524 186.214 21.7199C186.18 21.6873 186.14 21.6618 186.097 21.6448C186.053 21.6279 186.007 21.6199 185.96 21.6213Z" fill="#3F3D56"/>
<path d="M185.96 22.933H181.351C181.304 22.9316 181.258 22.9396 181.214 22.9565C181.171 22.9735 181.131 22.999 181.098 23.0316C181.064 23.0641 181.037 23.1031 181.019 23.1462C181.001 23.1893 180.992 23.2357 180.992 23.2824C180.992 23.3292 181.001 23.3755 181.019 23.4186C181.037 23.4617 181.064 23.5007 181.098 23.5333C181.131 23.5659 181.171 23.5914 181.214 23.6084C181.258 23.6253 181.304 23.6333 181.351 23.6319H185.96C186.007 23.6333 186.053 23.6253 186.097 23.6084C186.14 23.5914 186.18 23.5659 186.214 23.5333C186.247 23.5007 186.274 23.4617 186.292 23.4186C186.31 23.3755 186.32 23.3292 186.32 23.2824C186.32 23.2357 186.31 23.1893 186.292 23.1462C186.274 23.1031 186.247 23.0641 186.214 23.0316C186.18 22.999 186.14 22.9735 186.097 22.9565C186.053 22.9396 186.007 22.9316 185.96 22.933Z" fill="#3F3D56"/>
<path d="M185.96 24.2432H181.351C181.304 24.2418 181.258 24.2498 181.214 24.2667C181.171 24.2836 181.131 24.3092 181.098 24.3417C181.064 24.3743 181.037 24.4133 181.019 24.4564C181.001 24.4995 180.992 24.5458 180.992 24.5926C180.992 24.6394 181.001 24.6857 181.019 24.7288C181.037 24.7719 181.064 24.8109 181.098 24.8435C181.131 24.8761 181.171 24.9016 181.214 24.9185C181.258 24.9355 181.304 24.9435 181.351 24.942H185.96C186.007 24.9435 186.053 24.9355 186.097 24.9185C186.14 24.9016 186.18 24.8761 186.214 24.8435C186.247 24.8109 186.274 24.7719 186.292 24.7288C186.31 24.6857 186.32 24.6394 186.32 24.5926C186.32 24.5458 186.31 24.4995 186.292 24.4564C186.274 24.4133 186.247 24.3743 186.214 24.3417C186.18 24.3092 186.14 24.2836 186.097 24.2667C186.053 24.2498 186.007 24.2418 185.96 24.2432Z" fill="#3F3D56"/>
<path d="M156.076 44.7554H146.004C145.248 44.7554 144.635 45.3694 144.635 46.1268C144.635 46.8843 145.248 47.4983 146.004 47.4983H156.076C156.832 47.4983 157.445 46.8843 157.445 46.1268C157.445 45.3694 156.832 44.7554 156.076 44.7554Z" fill="#B3000B"/>
<path d="M162.581 50.2416H139.499C138.742 50.2416 138.129 50.8556 138.129 51.613C138.129 52.3705 138.742 52.9845 139.499 52.9845H162.581C163.338 52.9845 163.951 52.3705 163.951 51.613C163.951 50.8556 163.338 50.2416 162.581 50.2416Z" fill="#E6E6E6"/>
<path d="M162.581 55.7271H139.499C138.742 55.7271 138.129 56.3411 138.129 57.0986C138.129 57.856 138.742 58.47 139.499 58.47H162.581C163.338 58.47 163.951 57.856 163.951 57.0986C163.951 56.3411 163.338 55.7271 162.581 55.7271Z" fill="#E6E6E6"/>
<path d="M117.508 76.7745C117.51 77.9043 117.309 79.0252 116.915 80.0838H108.06C107.658 80.0831 107.272 79.9227 106.987 79.6378C106.703 79.3528 106.543 78.9665 106.542 78.5635V67.4122C107.037 67.3321 107.537 67.292 108.038 67.2921C110.55 67.2921 112.958 68.2911 114.734 70.0694C116.51 71.8477 117.508 74.2596 117.508 76.7745Z" fill="#E6E6E6"/>
<path d="M87.4215 182.767L0.375933 182.864C0.278149 182.861 0.185323 182.82 0.11716 182.75C0.0489964 182.68 0.0108643 182.586 0.0108643 182.488C0.0108643 182.39 0.0489964 182.296 0.11716 182.225C0.185323 182.155 0.278149 182.114 0.375933 182.111L87.4215 182.014C87.4718 182.013 87.5218 182.022 87.5687 182.04C87.6155 182.058 87.6583 182.085 87.6943 182.121C87.7304 182.156 87.7591 182.198 87.7787 182.244C87.7983 182.29 87.8083 182.34 87.8083 182.391C87.8083 182.441 87.7983 182.491 87.7787 182.537C87.7591 182.584 87.7304 182.626 87.6943 182.661C87.6583 182.696 87.6155 182.723 87.5687 182.741C87.5218 182.76 87.4718 182.768 87.4215 182.767Z" fill="#CACACA"/>
<path d="M46.7952 11.3671C46.7952 11.3671 55.3429 5.21559 56.4114 8.15765C57.48 11.0997 50.0005 16.45 50.0005 16.45L46.7952 11.3671Z" fill="#FFB9B9"/>
<path d="M77.1121 19.2571C77.1121 29.8925 72.539 30.2228 65.0892 30.2228C57.6394 30.2228 50.1338 29.8925 50.1338 19.2571C50.1338 8.62167 56.1732 0 63.6229 0C71.0727 0 77.1121 8.62167 77.1121 19.2571Z" fill="#2F2E41"/>
<path d="M58.8151 19.1233C58.8151 19.1233 59.8836 27.147 54.8083 27.6821C49.733 28.2172 71.3692 29.8216 71.3692 29.8216C71.3692 29.8216 65.7598 24.74 68.698 20.7281C71.6363 16.7161 58.8151 19.1233 58.8151 19.1233Z" fill="#FFB9B9"/>
<path opacity="0.1" d="M58.8151 19.1233C58.8151 19.1233 59.8836 27.147 54.8083 27.6821C49.733 28.2172 71.3692 29.8216 71.3692 29.8216C71.3692 29.8216 65.7598 24.74 68.698 20.7281C71.6363 16.7161 58.8151 19.1233 58.8151 19.1233Z" fill="black"/>
<path d="M31.8367 162.482L29.967 178.262C29.967 178.262 20.6181 189.763 26.4946 188.96C32.3711 188.158 36.1105 187.355 36.1105 186.286C36.1105 185.216 36.912 180.936 37.7132 180.936C38.5143 180.936 38.5146 183.878 38.5146 183.878C39.4311 183.487 40.3232 183.04 41.1858 182.541C41.4529 182.274 41.7199 173.18 41.7199 173.18C41.7199 173.18 42.5214 168.633 40.9184 166.494C39.3155 164.354 39.5828 162.482 39.5828 162.482H31.8367Z" fill="#090814"/>
<path d="M74.8429 161.412C74.8429 161.412 74.0414 177.192 72.9732 177.994C71.9049 178.797 68.9664 190.297 74.3087 188.692C79.6511 187.088 82.0549 185.483 82.0549 184.413C82.0549 183.343 82.0549 175.854 82.589 174.25C83.1232 172.645 82.589 169.703 82.322 169.435C82.0549 169.168 81.5205 161.679 81.5205 161.679L74.8429 161.412Z" fill="#090814"/>
<path d="M45.7265 68.6032C45.7265 68.6032 37.1788 92.9412 36.6447 98.2912C36.1106 103.641 37.1788 121.828 37.1788 121.828C37.1788 121.828 29.4326 163.016 31.0353 163.284C32.6379 163.551 40.1171 164.621 40.3841 163.284C40.6512 161.947 41.7197 160.074 41.4526 159.272C41.1856 158.469 42.2541 155.527 42.2541 153.923C42.2541 152.318 47.3291 134.131 47.0621 132.793C46.795 131.456 51.603 111.664 52.4044 110.059C53.2059 108.455 55.3427 97.2213 55.3427 97.2213C55.3427 97.2213 67.363 130.119 67.6298 130.921C67.8965 131.723 68.9653 133.061 68.4312 133.328C67.8971 133.596 69.2327 135.468 69.2327 135.468C69.2327 135.468 73.7736 156.329 73.7736 156.865C73.7736 157.4 73.2395 161.679 74.3077 161.947C75.3759 162.214 82.0539 163.819 82.5883 161.947C83.1228 160.074 79.3827 128.782 79.3827 128.782C79.3827 128.782 74.8418 115.142 76.1774 111.664C77.513 108.187 74.8418 87.3264 73.7733 85.7211C72.7048 84.1157 72.4377 74.4876 72.4377 74.4876L45.7265 68.6032Z" fill="#090814"/>
<path d="M63.4898 23.5367C68.2106 23.5367 72.0375 19.7048 72.0375 14.978C72.0375 10.2511 68.2106 6.41919 63.4898 6.41919C58.7691 6.41919 54.9422 10.2511 54.9422 14.978C54.9422 19.7048 58.7691 23.5367 63.4898 23.5367Z" fill="#FFB9B9"/>
<path d="M58.8144 25.8097C58.8144 25.8097 68.4303 26.0771 68.9647 25.2749C69.4991 24.4726 82.8541 27.147 82.8541 32.4963C82.8541 37.8456 75.1079 58.7074 75.1079 58.7074C75.1079 58.7074 72.1697 73.6851 72.9712 75.2898C73.7727 76.8946 43.3217 71.813 44.1232 69.1383C44.9247 66.4637 49.4656 60.5795 43.5891 55.498C37.7126 50.4164 35.3085 45.0674 35.3085 45.0674L42.2532 26.6128C42.2532 26.6128 49.1979 25.5429 50.8008 26.6128C52.4038 27.6827 58.8144 25.8097 58.8144 25.8097Z" fill="#B3000B"/>
<path d="M37.1788 46.4041L35.3091 45.0667C35.3091 45.0667 17.9473 26.8796 22.4876 23.4024C27.0278 19.9252 33.7064 16.7161 36.9117 16.4487C40.117 16.1813 42.7882 13.774 42.7882 13.774C42.7882 13.774 46.2606 7.62252 48.9318 11.6345C51.6029 15.6465 54.5412 16.9838 50.8014 18.3211C47.0617 19.6585 44.6579 19.1233 42.7882 20.4607C40.9185 21.798 33.7064 23.9375 36.9117 24.7401C38.7497 25.1861 40.5391 25.8132 42.2538 26.6122L45.7261 32.7637L37.1788 46.4041Z" fill="#B3000B"/>
<path d="M67.3624 91.6049C67.3624 91.6049 60.4177 101.768 65.4927 101.233C70.5677 100.698 72.9718 93.7444 72.9718 93.7444L67.3624 91.6049Z" fill="#FFB9B9"/>
<path d="M80.9857 31.1589L82.8554 32.4963C82.8554 32.4963 88.9989 66.1962 82.8554 75.0224C76.7119 83.8486 76.1778 83.3134 76.1778 83.3134C76.1778 83.3134 75.1092 82.5109 74.5751 87.8602C74.041 93.2095 74.8422 95.3491 73.2395 95.3491C71.6369 95.3491 64.4248 93.7444 64.9589 92.407C65.493 91.0697 68.9657 83.3134 69.2328 81.4413C69.4998 79.5692 70.8354 75.2898 71.3698 72.8825C71.9042 70.4753 68.9657 69.138 70.3013 64.0564C71.6369 58.9748 73.5066 49.8809 73.5066 48.0088C73.5066 46.1366 80.9857 31.1589 80.9857 31.1589Z" fill="#B3000B"/>
<path d="M71.7703 7.35607C71.7703 10.2365 67.8244 12.5714 62.9556 12.5714C58.0867 12.5714 53.6074 14.1138 53.6074 11.2334C53.6074 8.35298 58.0879 2.13983 62.9562 2.13983C67.8244 2.13983 71.7703 4.4747 71.7703 7.35607Z" fill="#090814"/>
<path d="M50.2138 21.0622C50.2138 21.0622 49.854 30.7579 59.4765 30.2231C69.099 29.6883 58.1762 21.9352 58.1762 21.9352L50.2138 21.0622Z" fill="#2F2E41"/>
<path d="M77.9467 125.183H54.1684C53.531 125.183 52.92 124.929 52.4693 124.477C52.0187 124.026 51.7652 123.414 51.7645 122.776V100.991C51.7652 100.353 52.0187 99.7412 52.4693 99.2899C52.92 98.8387 53.531 98.5849 54.1684 98.5842H77.9476C78.585 98.5849 79.196 98.8387 79.6467 99.2899C80.0973 99.7412 80.3508 100.353 80.3514 100.991V122.776C80.3508 123.415 80.0972 124.027 79.6463 124.478C79.1955 124.929 78.5842 125.183 77.9467 125.183Z" fill="#3F3D56"/>
<path d="M76.2752 123.177H55.8389C55.273 123.177 54.7306 122.951 54.3305 122.551C53.9304 122.15 53.7053 121.607 53.7046 121.04V102.727C53.7053 102.161 53.9304 101.618 54.3305 101.217C54.7306 100.816 55.273 100.591 55.8389 100.59H76.2752C76.841 100.591 77.3835 100.816 77.7836 101.217C78.1837 101.618 78.4088 102.161 78.4095 102.727V121.04C78.4088 121.607 78.1837 122.15 77.7836 122.551C77.3835 122.951 76.841 123.177 76.2752 123.177Z" fill="white"/>
<path d="M74.2367 105.922H57.8778C57.7363 105.922 57.6006 105.866 57.5006 105.766C57.4005 105.665 57.3443 105.529 57.3443 105.388C57.3443 105.246 57.4005 105.11 57.5006 105.01C57.6006 104.91 57.7363 104.854 57.8778 104.854H74.2367C74.3781 104.854 74.5138 104.91 74.6139 105.01C74.7139 105.11 74.7701 105.246 74.7701 105.388C74.7701 105.529 74.7139 105.665 74.6139 105.766C74.5138 105.866 74.3781 105.922 74.2367 105.922Z" fill="#B3000B"/>
<path d="M74.2367 108.033H57.8778C57.7363 108.033 57.6006 107.977 57.5006 107.876C57.4005 107.776 57.3443 107.64 57.3443 107.499C57.3443 107.357 57.4005 107.221 57.5006 107.121C57.6006 107.021 57.7363 106.964 57.8778 106.964H74.2367C74.3781 106.964 74.5138 107.021 74.6139 107.121C74.7139 107.221 74.7701 107.357 74.7701 107.499C74.7701 107.64 74.7139 107.776 74.6139 107.876C74.5138 107.977 74.3781 108.033 74.2367 108.033Z" fill="#B3000B"/>
<path d="M64.969 110.144H57.8778C57.7363 110.144 57.6006 110.087 57.5006 109.987C57.4005 109.887 57.3443 109.751 57.3443 109.609C57.3443 109.468 57.4005 109.332 57.5006 109.232C57.6006 109.131 57.7363 109.075 57.8778 109.075H64.969C65.1104 109.075 65.2461 109.131 65.3462 109.232C65.4462 109.332 65.5024 109.468 65.5024 109.609C65.5024 109.751 65.4462 109.887 65.3462 109.987C65.2461 110.087 65.1104 110.144 64.969 110.144Z" fill="#B3000B"/>
<path d="M74.2367 114.565H57.8778C57.7363 114.565 57.6006 114.509 57.5006 114.408C57.4005 114.308 57.3443 114.172 57.3443 114.031C57.3443 113.889 57.4005 113.753 57.5006 113.653C57.6006 113.553 57.7363 113.496 57.8778 113.496H74.2367C74.3781 113.496 74.5138 113.553 74.6139 113.653C74.7139 113.753 74.7701 113.889 74.7701 114.031C74.7701 114.172 74.7139 114.308 74.6139 114.408C74.5138 114.509 74.3781 114.565 74.2367 114.565Z" fill="#E4E4E4"/>
<path d="M74.2367 116.676H57.8778C57.7363 116.676 57.6006 116.619 57.5006 116.519C57.4005 116.419 57.3443 116.283 57.3443 116.141C57.3443 116 57.4005 115.864 57.5006 115.764C57.6006 115.664 57.7363 115.607 57.8778 115.607H74.2367C74.3781 115.607 74.5138 115.664 74.6139 115.764C74.7139 115.864 74.7701 116 74.7701 116.141C74.7701 116.283 74.7139 116.419 74.6139 116.519C74.5138 116.619 74.3781 116.676 74.2367 116.676Z" fill="#E4E4E4"/>
<path d="M64.969 118.786H57.8778C57.7363 118.786 57.6006 118.73 57.5006 118.63C57.4005 118.53 57.3443 118.394 57.3443 118.252C57.3443 118.111 57.4005 117.975 57.5006 117.874C57.6006 117.774 57.7363 117.718 57.8778 117.718H64.969C65.1104 117.718 65.2461 117.774 65.3462 117.874C65.4462 117.975 65.5024 118.111 65.5024 118.252C65.5024 118.394 65.4462 118.53 65.3462 118.63C65.2461 118.73 65.1104 118.786 64.969 118.786Z" fill="#E4E4E4"/>
</g>
<defs>
<clipPath id="clip0_25_566">
<rect width="245" height="189" fill="white"/>
</clipPath>
</defs>
</svg>
